<mxfile host="app.diagrams.net" modified="2021-01-16T15:12:15.243Z" agent="5.0 (Windows)" etag="fgvUBwOAr9Pz0aD6b7sE" version="14.2.3" type="github">
  <diagram id="yx-DEh3mafyq6rKC4UoP" name="Page-1">
    <mxGraphModel dx="2605" dy="797" grid="1" gridSize="10" guides="1" tooltips="1" connect="1" arrows="1" fold="1" page="1" pageScale="1" pageWidth="850" pageHeight="1100" math="0" shadow="0">
      <root>
        <mxCell id="0" />
        <mxCell id="1" parent="0" />
        <mxCell id="9jHa-yjWCjIx_G0f_6F6-2" value="" style="group;fillColor=#dae8fc;strokeColor=#6c8ebf;" parent="1" vertex="1" connectable="0">
          <mxGeometry x="-790" y="70" width="650" height="280" as="geometry" />
        </mxCell>
        <mxCell id="9jHa-yjWCjIx_G0f_6F6-3" value="" style="rounded=0;whiteSpace=wrap;html=1;strokeWidth=2;fillColor=none;align=left;" parent="9jHa-yjWCjIx_G0f_6F6-2" vertex="1">
          <mxGeometry width="650" height="280" as="geometry" />
        </mxCell>
        <mxCell id="9jHa-yjWCjIx_G0f_6F6-4" value="&lt;h1&gt;MainGame&lt;/h1&gt;&lt;div&gt;In charge of the global aspects for the game&lt;/div&gt;&lt;ul&gt;&lt;li&gt;&lt;b&gt;GameOver&lt;/b&gt;:&lt;/li&gt;&lt;ul&gt;&lt;li&gt;Are all Tasks finished? (TaskManager)&lt;/li&gt;&lt;li&gt;Is the Player dead? (Player)&lt;/li&gt;&lt;/ul&gt;&lt;li&gt;&lt;b&gt;Start/Pause/Resume Game&lt;/b&gt;&lt;/li&gt;&lt;li&gt;&lt;b&gt;Score&lt;/b&gt;&lt;/li&gt;&lt;li&gt;&lt;b&gt;Difficulty&lt;/b&gt;&lt;/li&gt;&lt;li&gt;&lt;b&gt;(Later versions) Mode: &lt;br&gt;&lt;/b&gt;&lt;/li&gt;&lt;/ul&gt;&lt;div&gt;&lt;br&gt;&lt;/div&gt;&lt;div&gt;&lt;br&gt;&lt;/div&gt;&lt;p&gt;&lt;br&gt;&lt;/p&gt;" style="text;html=1;strokeColor=none;fillColor=none;spacing=5;spacingTop=-20;whiteSpace=wrap;overflow=hidden;rounded=0;" parent="9jHa-yjWCjIx_G0f_6F6-2" vertex="1">
          <mxGeometry x="23.210416666666667" y="11.2" width="599.70625" height="254.79999999999998" as="geometry" />
        </mxCell>
        <mxCell id="9jHa-yjWCjIx_G0f_6F6-5" value="" style="group" parent="1" vertex="1" connectable="0">
          <mxGeometry x="710" y="80" width="820" height="1030" as="geometry" />
        </mxCell>
        <mxCell id="9jHa-yjWCjIx_G0f_6F6-6" value="" style="rounded=0;whiteSpace=wrap;html=1;strokeWidth=2;fillColor=#d0cee2;strokeColor=#56517e;" parent="9jHa-yjWCjIx_G0f_6F6-5" vertex="1">
          <mxGeometry width="820" height="1030" as="geometry" />
        </mxCell>
        <mxCell id="9jHa-yjWCjIx_G0f_6F6-7" value="&lt;h1&gt;Collectible&lt;/h1&gt;&lt;div&gt;Objects that player can collect to stay alive or fulfill tasks&lt;br&gt;&lt;/div&gt;&lt;div&gt;&lt;br&gt;&lt;/div&gt;- Healing Value: How much IS does this recover for you" style="text;html=1;spacing=5;spacingTop=-20;whiteSpace=wrap;overflow=hidden;rounded=0;" parent="9jHa-yjWCjIx_G0f_6F6-5" vertex="1">
          <mxGeometry x="43.1601941328731" y="39.61538461538461" width="612.7333261432268" height="158.46153846153848" as="geometry" />
        </mxCell>
        <mxCell id="9jHa-yjWCjIx_G0f_6F6-8" value="" style="group" parent="9jHa-yjWCjIx_G0f_6F6-5" vertex="1" connectable="0">
          <mxGeometry x="21.578947368421055" y="198.07692307692307" width="388.42105263157896" height="779.1025641025641" as="geometry" />
        </mxCell>
        <mxCell id="9jHa-yjWCjIx_G0f_6F6-9" value="" style="rounded=0;whiteSpace=wrap;html=1;strokeWidth=2;fillColor=#dae8fc;strokeColor=#6c8ebf;" parent="9jHa-yjWCjIx_G0f_6F6-8" vertex="1">
          <mxGeometry width="366.8421052631579" height="779.1025641025641" as="geometry" />
        </mxCell>
        <mxCell id="9jHa-yjWCjIx_G0f_6F6-10" value="" style="group;fillColor=#d5e8d4;strokeColor=#82b366;" parent="9jHa-yjWCjIx_G0f_6F6-8" vertex="1" connectable="0">
          <mxGeometry x="32.36842105263158" y="488.5897435897436" width="302.10526315789474" height="264.1025641025641" as="geometry" />
        </mxCell>
        <mxCell id="9jHa-yjWCjIx_G0f_6F6-11" value="" style="rounded=0;whiteSpace=wrap;html=1;strokeWidth=2;fillColor=none;align=left;" parent="9jHa-yjWCjIx_G0f_6F6-10" vertex="1">
          <mxGeometry width="302.1052631578948" height="264.1025641025641" as="geometry" />
        </mxCell>
        <mxCell id="9jHa-yjWCjIx_G0f_6F6-12" value="&lt;h1&gt;Vaccine : Collectible&lt;/h1&gt;&lt;div&gt;The rarest collectible&lt;br&gt;&lt;/div&gt;&lt;div&gt;&lt;ul&gt;&lt;li&gt;&lt;b&gt;(You may win the round if found the vaccine? or)&lt;/b&gt;&lt;/li&gt;&lt;li&gt;Provides with large amount of shield (Like a superpowerful mask with Durability = infinite and Duration &amp;gt;&amp;gt;)&lt;br&gt;&lt;/li&gt;&lt;/ul&gt;&lt;/div&gt;&lt;p&gt;&lt;br&gt;&lt;/p&gt;" style="text;html=1;strokeColor=none;fillColor=none;spacing=5;spacingTop=-20;whiteSpace=wrap;overflow=hidden;rounded=0;" parent="9jHa-yjWCjIx_G0f_6F6-10" vertex="1">
          <mxGeometry x="10.78767543859649" y="10.56410256410256" width="278.7298684210527" height="240.3333333333333" as="geometry" />
        </mxCell>
        <mxCell id="9jHa-yjWCjIx_G0f_6F6-13" value="" style="group;fillColor=#d5e8d4;strokeColor=#82b366;" parent="9jHa-yjWCjIx_G0f_6F6-8" vertex="1" connectable="0">
          <mxGeometry x="32.36842105263158" y="198.07692307692307" width="309.81973684210527" height="250.89743589743588" as="geometry" />
        </mxCell>
        <mxCell id="9jHa-yjWCjIx_G0f_6F6-14" value="" style="rounded=0;whiteSpace=wrap;html=1;strokeWidth=2;fillColor=none;align=left;" parent="9jHa-yjWCjIx_G0f_6F6-13" vertex="1">
          <mxGeometry width="309.81973684210527" height="250.89743589743588" as="geometry" />
        </mxCell>
        <mxCell id="9jHa-yjWCjIx_G0f_6F6-15" value="&lt;h1&gt;Mask : Collectible&lt;/h1&gt;&lt;div&gt;&lt;div&gt;Healing Value = 0 but can protect the player IS. Will be off when either durability or duration = 0&lt;br&gt;&lt;/div&gt;&lt;ul&gt;&lt;li&gt;&lt;b&gt;Durability&lt;/b&gt;: reduces as player comes into close contact with an infected agent (i.e. &quot;taking a hit&quot; for the player)&lt;/li&gt;&lt;li&gt;&lt;b&gt;Duration&lt;/b&gt;: Mask will lose its effect after a fixed amount of time (e.g. 15s)&lt;/li&gt;&lt;/ul&gt;&lt;/div&gt;&lt;div&gt;&lt;br&gt;&lt;/div&gt;&lt;div&gt;&lt;br&gt;&lt;/div&gt;&lt;p&gt;&lt;br&gt;&lt;/p&gt;" style="text;html=1;spacing=5;spacingTop=-20;whiteSpace=wrap;overflow=hidden;rounded=0;" parent="9jHa-yjWCjIx_G0f_6F6-13" vertex="1">
          <mxGeometry x="11.063146436403509" y="10.035897435897436" width="285.84743470394733" height="228.31666666666663" as="geometry" />
        </mxCell>
        <mxCell id="9jHa-yjWCjIx_G0f_6F6-16" value="&lt;p style=&quot;font-size: 22px&quot;&gt;&lt;font style=&quot;font-size: 22px&quot;&gt;&lt;b&gt;Preventative Collectibles&lt;/b&gt;&lt;/font&gt;&lt;/p&gt;&lt;p&gt;&lt;font style=&quot;font-size: 12px&quot;&gt;Healing Value = 0 but protect your IS&lt;b&gt;. To be used immediate, cannot be stored&lt;br&gt;&lt;/b&gt;&lt;/font&gt;&lt;/p&gt;&lt;p&gt;&lt;br&gt;&lt;/p&gt;" style="text;html=1;strokeColor=none;fillColor=none;spacing=5;spacingTop=-20;whiteSpace=wrap;overflow=hidden;rounded=0;" parent="9jHa-yjWCjIx_G0f_6F6-8" vertex="1">
          <mxGeometry x="32.36842105263158" y="39.61538461538461" width="291.3157894736842" height="118.84615384615384" as="geometry" />
        </mxCell>
        <mxCell id="9jHa-yjWCjIx_G0f_6F6-17" value="" style="group" parent="9jHa-yjWCjIx_G0f_6F6-5" vertex="1" connectable="0">
          <mxGeometry x="410" y="198.07692307692307" width="388.42105263157896" height="779.1025641025641" as="geometry" />
        </mxCell>
        <mxCell id="9jHa-yjWCjIx_G0f_6F6-18" value="" style="rounded=0;whiteSpace=wrap;html=1;strokeWidth=2;fillColor=#fff2cc;strokeColor=#d6b656;" parent="9jHa-yjWCjIx_G0f_6F6-17" vertex="1">
          <mxGeometry width="388.42105263157896" height="779.1025641025641" as="geometry" />
        </mxCell>
        <mxCell id="9jHa-yjWCjIx_G0f_6F6-19" value="&lt;h1&gt;Regular Collectibles&lt;/h1&gt;&lt;div&gt;Objects that the player can pick up, that might have healing power&lt;br&gt;&lt;/div&gt;&lt;p&gt;&lt;br&gt;&lt;/p&gt;" style="text;html=1;strokeColor=none;fillColor=none;spacing=5;spacingTop=-20;whiteSpace=wrap;overflow=hidden;rounded=0;" parent="9jHa-yjWCjIx_G0f_6F6-17" vertex="1">
          <mxGeometry x="32.36842105263158" y="39.61538461538461" width="356.0526315789474" height="118.84615384615384" as="geometry" />
        </mxCell>
        <mxCell id="9jHa-yjWCjIx_G0f_6F6-20" value="" style="group;fillColor=#e1d5e7;strokeColor=#9673a6;" parent="9jHa-yjWCjIx_G0f_6F6-17" vertex="1" connectable="0">
          <mxGeometry x="32.36842105263158" y="211.28205128205127" width="334.4736842105263" height="145.25641025641025" as="geometry" />
        </mxCell>
        <mxCell id="9jHa-yjWCjIx_G0f_6F6-21" value="" style="rounded=0;whiteSpace=wrap;html=1;strokeWidth=2;fillColor=none;align=left;" parent="9jHa-yjWCjIx_G0f_6F6-20" vertex="1">
          <mxGeometry width="334.47368421052636" height="145.25641025641028" as="geometry" />
        </mxCell>
        <mxCell id="9jHa-yjWCjIx_G0f_6F6-22" value="&lt;h1&gt;Medication : Collectible&lt;/h1&gt;&lt;div&gt;Rare kind of collectible with great healing powe&lt;b&gt;r&lt;/b&gt;&lt;br&gt;&lt;/div&gt;&lt;p&gt;&lt;br&gt;&lt;/p&gt;" style="text;html=1;strokeColor=none;fillColor=none;spacing=5;spacingTop=-20;whiteSpace=wrap;overflow=hidden;rounded=0;" parent="9jHa-yjWCjIx_G0f_6F6-20" vertex="1">
          <mxGeometry x="11.943497807017545" y="5.810256410256408" width="308.59378289473693" height="132.18333333333334" as="geometry" />
        </mxCell>
        <mxCell id="9jHa-yjWCjIx_G0f_6F6-23" value="" style="group;fillColor=#e1d5e7;strokeColor=#9673a6;" parent="9jHa-yjWCjIx_G0f_6F6-17" vertex="1" connectable="0">
          <mxGeometry x="32.36842105263158" y="382.94871794871796" width="334.4736842105263" height="145.25641025641025" as="geometry" />
        </mxCell>
        <mxCell id="9jHa-yjWCjIx_G0f_6F6-24" value="" style="rounded=0;whiteSpace=wrap;html=1;strokeWidth=2;fillColor=none;align=left;" parent="9jHa-yjWCjIx_G0f_6F6-23" vertex="1">
          <mxGeometry width="334.47368421052636" height="145.25641025641025" as="geometry" />
        </mxCell>
        <mxCell id="9jHa-yjWCjIx_G0f_6F6-25" value="&lt;h1&gt;Grocery : Collectible&lt;/h1&gt;&lt;div&gt;&lt;div&gt;Things like Milk, Bread, Eggs...&lt;br&gt;&lt;/div&gt;&lt;/div&gt;&lt;div&gt;&lt;br&gt;&lt;/div&gt;&lt;div&gt;&lt;br&gt;&lt;/div&gt;&lt;p&gt;&lt;br&gt;&lt;/p&gt;" style="text;html=1;spacing=5;spacingTop=-20;whiteSpace=wrap;overflow=hidden;rounded=0;" parent="9jHa-yjWCjIx_G0f_6F6-23" vertex="1">
          <mxGeometry x="11.943497807017547" y="5.810256410256411" width="308.5937828947369" height="132.18333333333334" as="geometry" />
        </mxCell>
        <mxCell id="9jHa-yjWCjIx_G0f_6F6-26" value="" style="group;fillColor=#fad9d5;strokeColor=#ae4132;" parent="1" vertex="1" connectable="0">
          <mxGeometry x="-50" y="70" width="680" height="1030" as="geometry" />
        </mxCell>
        <mxCell id="9jHa-yjWCjIx_G0f_6F6-27" value="" style="rounded=0;whiteSpace=wrap;html=1;strokeWidth=2;fillColor=#bac8d3;strokeColor=#23445d;" parent="9jHa-yjWCjIx_G0f_6F6-26" vertex="1">
          <mxGeometry width="680" height="1030" as="geometry" />
        </mxCell>
        <mxCell id="9jHa-yjWCjIx_G0f_6F6-28" value="" style="group;fillColor=#fff2cc;strokeColor=#d6b656;" parent="9jHa-yjWCjIx_G0f_6F6-26" vertex="1" connectable="0">
          <mxGeometry x="355.69230769230774" y="161.32530120481928" width="292.92307692307696" height="223.37349397590364" as="geometry" />
        </mxCell>
        <mxCell id="9jHa-yjWCjIx_G0f_6F6-29" value="" style="rounded=0;whiteSpace=wrap;html=1;strokeWidth=2;fillColor=none;align=left;" parent="9jHa-yjWCjIx_G0f_6F6-28" vertex="1">
          <mxGeometry width="292.923076923077" height="223.37349397590364" as="geometry" />
        </mxCell>
        <mxCell id="9jHa-yjWCjIx_G0f_6F6-30" value="&lt;h1&gt;Player.Movement&lt;/h1&gt;&lt;div&gt;&lt;ul&gt;&lt;li&gt;&lt;b&gt;Direction&lt;/b&gt;: relative to the current perspective (camera)&lt;/li&gt;&lt;li&gt;&lt;b&gt;Speed&lt;/b&gt;: Normal vs. Running vs. Carrying Objects (Slower the more objects carrying?)&lt;br&gt;&lt;/li&gt;&lt;/ul&gt;&lt;/div&gt;&lt;div&gt;&lt;br&gt;&lt;/div&gt;&lt;div&gt;&lt;br&gt;&lt;/div&gt;&lt;p&gt;&lt;br&gt;&lt;/p&gt;" style="text;html=1;strokeColor=none;fillColor=none;spacing=5;spacingTop=-20;whiteSpace=wrap;overflow=hidden;rounded=0;" parent="9jHa-yjWCjIx_G0f_6F6-28" vertex="1">
          <mxGeometry x="10.459794871794871" y="8.934939759036142" width="270.2581538461539" height="203.26987951807223" as="geometry" />
        </mxCell>
        <mxCell id="9jHa-yjWCjIx_G0f_6F6-31" value="" style="group;fillColor=#fff2cc;strokeColor=#d6b656;" parent="9jHa-yjWCjIx_G0f_6F6-26" vertex="1" connectable="0">
          <mxGeometry x="31.384615384615387" y="421.9277108433735" width="303.3846153846154" height="285.421686746988" as="geometry" />
        </mxCell>
        <mxCell id="9jHa-yjWCjIx_G0f_6F6-32" value="" style="rounded=0;whiteSpace=wrap;html=1;strokeWidth=2;fillColor=none;align=left;" parent="9jHa-yjWCjIx_G0f_6F6-31" vertex="1">
          <mxGeometry width="303.38461538461553" height="285.421686746988" as="geometry" />
        </mxCell>
        <mxCell id="9jHa-yjWCjIx_G0f_6F6-33" value="&lt;h1&gt;Player.ImmunityScore&lt;/h1&gt;&lt;div&gt;Player&#39;s Health basically. &lt;br&gt;&lt;/div&gt;&lt;div&gt;&lt;ul&gt;&lt;li&gt;&lt;b&gt;Decreases &lt;/b&gt;with negative events (Car/Bot)&lt;/li&gt;&lt;li&gt;&lt;b&gt;Unchanged&lt;/b&gt; when mask is on&lt;/li&gt;&lt;li&gt;&lt;b&gt;Increases &lt;/b&gt;when Vaccine is collected. (Or may be when the player try to trade off [any object collected] for health)&lt;br&gt;&lt;/li&gt;&lt;/ul&gt;&lt;/div&gt;&lt;div&gt;&lt;br&gt;&lt;/div&gt;&lt;p&gt;&lt;br&gt;&lt;/p&gt;" style="text;html=1;strokeColor=none;fillColor=none;spacing=5;spacingTop=-20;whiteSpace=wrap;overflow=hidden;rounded=0;" parent="9jHa-yjWCjIx_G0f_6F6-31" vertex="1">
          <mxGeometry x="10.833358974358974" y="11.41686746987952" width="279.91023076923085" height="259.7337349397591" as="geometry" />
        </mxCell>
        <mxCell id="9jHa-yjWCjIx_G0f_6F6-34" value="" style="group;fillColor=#fff2cc;strokeColor=#d6b656;" parent="9jHa-yjWCjIx_G0f_6F6-26" vertex="1" connectable="0">
          <mxGeometry x="355.69230769230774" y="419.5822891566265" width="292.92307692307696" height="287.7671084337349" as="geometry" />
        </mxCell>
        <mxCell id="9jHa-yjWCjIx_G0f_6F6-35" value="" style="rounded=0;whiteSpace=wrap;html=1;strokeWidth=2;fillColor=none;align=left;" parent="9jHa-yjWCjIx_G0f_6F6-34" vertex="1">
          <mxGeometry width="292.923076923077" height="287.76710843373485" as="geometry" />
        </mxCell>
        <mxCell id="9jHa-yjWCjIx_G0f_6F6-36" value="&lt;h1&gt;Player.Mask&lt;/h1&gt;&lt;div&gt;Protects the player IS. Will be off when either durability or duration = 0&lt;br&gt;&lt;/div&gt;&lt;ul&gt;&lt;li&gt;&lt;b&gt;Durability&lt;/b&gt;: reduces as player comes into close contact with an infected agent (i.e. &quot;taking a hit&quot; for the player)&lt;/li&gt;&lt;li&gt;&lt;b&gt;Duration&lt;/b&gt;: Mask will lose its effect after a fixed amount of time (e.g. 15s)&lt;br&gt;&lt;/li&gt;&lt;/ul&gt;&lt;div&gt;A player may only have 1 mask at any time&lt;br&gt;&lt;/div&gt;&lt;p&gt;&lt;br&gt;&lt;/p&gt;" style="text;html=1;strokeColor=none;fillColor=none;spacing=5;spacingTop=-20;whiteSpace=wrap;overflow=hidden;rounded=0;" parent="9jHa-yjWCjIx_G0f_6F6-34" vertex="1">
          <mxGeometry x="10.459794871794871" y="11.5106843373494" width="270.2581538461539" height="261.8680686746988" as="geometry" />
        </mxCell>
        <mxCell id="9jHa-yjWCjIx_G0f_6F6-37" value="&lt;h1&gt;Player&lt;/h1&gt;&lt;div&gt;Try to stay away from COVID&lt;br&gt;&lt;/div&gt;&lt;div&gt;&lt;br&gt;&lt;/div&gt;&lt;div&gt;&lt;br&gt;&lt;/div&gt;&lt;div&gt;&lt;br&gt;&lt;/div&gt;&lt;p&gt;&lt;br&gt;&lt;/p&gt;" style="text;whiteSpace=wrap;html=1;" parent="9jHa-yjWCjIx_G0f_6F6-26" vertex="1">
          <mxGeometry x="34.36615384615387" y="12.409638554216867" width="188.30769230769232" height="198.55421686746988" as="geometry" />
        </mxCell>
        <mxCell id="9jHa-yjWCjIx_G0f_6F6-38" value="" style="group;fillColor=#fff2cc;strokeColor=#d6b656;" parent="9jHa-yjWCjIx_G0f_6F6-26" vertex="1" connectable="0">
          <mxGeometry x="34.36615384615387" y="161.32530120481928" width="300.4030769230769" height="223.37349397590364" as="geometry" />
        </mxCell>
        <mxCell id="9jHa-yjWCjIx_G0f_6F6-39" value="" style="rounded=0;whiteSpace=wrap;html=1;strokeWidth=2;fillColor=none;align=left;" parent="9jHa-yjWCjIx_G0f_6F6-38" vertex="1">
          <mxGeometry width="300.4030769230769" height="223.37349397590364" as="geometry" />
        </mxCell>
        <mxCell id="9jHa-yjWCjIx_G0f_6F6-40" value="&lt;h1&gt;Player.Camera&lt;/h1&gt;&lt;div&gt;Provide a cinematic, third-person perspective&lt;br&gt;&lt;/div&gt;&lt;div&gt;&lt;br&gt;&lt;/div&gt;&lt;div&gt;&lt;br&gt;&lt;/div&gt;&lt;p&gt;&lt;br&gt;&lt;/p&gt;" style="text;html=1;spacing=5;spacingTop=-20;whiteSpace=wrap;overflow=hidden;rounded=0;" parent="9jHa-yjWCjIx_G0f_6F6-38" vertex="1">
          <mxGeometry x="10.726893205128206" y="8.934939759036144" width="277.15938884615383" height="203.26987951807226" as="geometry" />
        </mxCell>
        <mxCell id="9jHa-yjWCjIx_G0f_6F6-41" value="" style="group;fillColor=#fff2cc;strokeColor=#d6b656;" parent="9jHa-yjWCjIx_G0f_6F6-26" vertex="1" connectable="0">
          <mxGeometry x="31.38615384615387" y="744.578313253012" width="300.4030769230769" height="223.37349397590364" as="geometry" />
        </mxCell>
        <mxCell id="9jHa-yjWCjIx_G0f_6F6-42" value="" style="rounded=0;whiteSpace=wrap;html=1;strokeWidth=2;fillColor=none;align=left;" parent="9jHa-yjWCjIx_G0f_6F6-41" vertex="1">
          <mxGeometry width="300.4030769230769" height="223.37349397590364" as="geometry" />
        </mxCell>
        <mxCell id="9jHa-yjWCjIx_G0f_6F6-43" value="&lt;h1&gt;Player.Bag&lt;/h1&gt;&lt;div&gt;A collection of Collectibles that the player have gathered&lt;br&gt;&lt;/div&gt;&lt;div&gt;&lt;br&gt;&lt;/div&gt;&lt;div&gt;&lt;br&gt;&lt;/div&gt;&lt;p&gt;&lt;br&gt;&lt;/p&gt;" style="text;html=1;spacing=5;spacingTop=-20;whiteSpace=wrap;overflow=hidden;rounded=0;" parent="9jHa-yjWCjIx_G0f_6F6-41" vertex="1">
          <mxGeometry x="10.726893205128206" y="8.934939759036144" width="277.15938884615383" height="203.26987951807226" as="geometry" />
        </mxCell>
        <mxCell id="9jHa-yjWCjIx_G0f_6F6-65" value="" style="group;fillColor=#dae8fc;strokeColor=#6c8ebf;container=0;" parent="1" vertex="1" connectable="0">
          <mxGeometry x="-800" y="392.07" width="680" height="787.93" as="geometry" />
        </mxCell>
        <mxCell id="9jHa-yjWCjIx_G0f_6F6-66" value="&lt;h1&gt;TaskHandling&lt;/h1&gt;&lt;br&gt;&lt;div&gt;&lt;br&gt;&lt;/div&gt;&lt;div&gt;&lt;br&gt;&lt;/div&gt;&lt;div&gt;&lt;br&gt;&lt;/div&gt;&lt;p&gt;&lt;br&gt;&lt;/p&gt;" style="text;whiteSpace=wrap;html=1;" parent="1" vertex="1">
          <mxGeometry x="-773.8066666666666" y="409.99833976833963" width="251.42857142857144" height="127.14954740454738" as="geometry" />
        </mxCell>
        <mxCell id="9jHa-yjWCjIx_G0f_6F6-67" value="" style="group;fillColor=#f5f5f5;strokeColor=#666666;fontColor=#333333;" parent="1" vertex="1" connectable="0">
          <mxGeometry x="-464.76190476190476" y="913.391793221793" width="282.8571428571429" height="216.25911625911618" as="geometry" />
        </mxCell>
        <mxCell id="9jHa-yjWCjIx_G0f_6F6-68" value="" style="rounded=0;whiteSpace=wrap;html=1;strokeWidth=2;fillColor=none;" parent="9jHa-yjWCjIx_G0f_6F6-67" vertex="1">
          <mxGeometry width="282.8571428571429" height="216.25911625911615" as="geometry" />
        </mxCell>
        <mxCell id="9jHa-yjWCjIx_G0f_6F6-69" value="&lt;h1&gt;Event&lt;/h1&gt;&lt;p&gt;Basically a collision/trigger between player and another GameObject (Car/Bot/Mask)&lt;/p&gt;&lt;ul&gt;&lt;li&gt;&lt;b&gt;Car Events:&lt;/b&gt; Got hit by a car&lt;br&gt;&lt;/li&gt;&lt;li&gt;&lt;b&gt;Bot Events:&lt;/b&gt; In close contact, touching, being sneezed at.&lt;/li&gt;&lt;li&gt;&lt;b&gt;Collection Events&lt;/b&gt;: Collecting masks/ health/ objects&lt;br&gt;&lt;/li&gt;&lt;/ul&gt;" style="text;html=1;strokeColor=none;fillColor=none;spacing=5;spacingTop=-20;whiteSpace=wrap;overflow=hidden;rounded=0;" parent="9jHa-yjWCjIx_G0f_6F6-67" vertex="1">
          <mxGeometry x="16.63865546218488" y="13.106613106613098" width="249.57983193277315" height="196.5991965991964" as="geometry" />
        </mxCell>
        <mxCell id="9jHa-yjWCjIx_G0f_6F6-70" value="" style="group;fillColor=#f5f5f5;strokeColor=#666666;fontColor=#333333;" parent="1" vertex="1" connectable="0">
          <mxGeometry x="-464.76190476190476" y="711.7626061776061" width="282.8571428571429" height="143.7582475332475" as="geometry" />
        </mxCell>
        <mxCell id="9jHa-yjWCjIx_G0f_6F6-71" value="" style="rounded=0;whiteSpace=wrap;html=1;strokeWidth=2;fillColor=none;" parent="9jHa-yjWCjIx_G0f_6F6-70" vertex="1">
          <mxGeometry width="282.8571428571429" height="143.7582475332475" as="geometry" />
        </mxCell>
        <mxCell id="9jHa-yjWCjIx_G0f_6F6-72" value="&lt;h1&gt;Task&lt;/h1&gt;&lt;p&gt;A collection of Events.&lt;/p&gt;&lt;ul&gt;&lt;li&gt;Check to see if the events composing it are fulfilled&lt;br&gt;&lt;/li&gt;&lt;/ul&gt;" style="text;html=1;strokeColor=none;fillColor=none;spacing=5;spacingTop=-20;whiteSpace=wrap;overflow=hidden;rounded=0;" parent="9jHa-yjWCjIx_G0f_6F6-70" vertex="1">
          <mxGeometry x="10.476190476190474" y="8.456367501955736" width="261.9047619047618" height="126.845512529336" as="geometry" />
        </mxCell>
        <mxCell id="9jHa-yjWCjIx_G0f_6F6-73" value="" style="group;fillColor=#f5f5f5;strokeColor=#666666;fontColor=#333333;" parent="1" vertex="1" connectable="0">
          <mxGeometry x="-464.76190476190476" y="534.9383397683397" width="282.8571428571429" height="135.302516087516" as="geometry" />
        </mxCell>
        <mxCell id="9jHa-yjWCjIx_G0f_6F6-74" value="" style="rounded=0;whiteSpace=wrap;html=1;strokeWidth=2;fillColor=none;align=left;" parent="9jHa-yjWCjIx_G0f_6F6-73" vertex="1">
          <mxGeometry width="282.8571428571429" height="135.30251608751607" as="geometry" />
        </mxCell>
        <mxCell id="9jHa-yjWCjIx_G0f_6F6-75" value="&lt;h1&gt;TaskManager&lt;/h1&gt;&lt;ul&gt;&lt;li&gt;Track all player Tasks&lt;/li&gt;&lt;li&gt;Signal to MainGame once all tasks are done&lt;br&gt;&lt;/li&gt;&lt;/ul&gt;&lt;p&gt;&lt;br&gt;&lt;/p&gt;" style="text;html=1;strokeColor=none;fillColor=none;spacing=5;spacingTop=-20;whiteSpace=wrap;overflow=hidden;rounded=0;" parent="9jHa-yjWCjIx_G0f_6F6-73" vertex="1">
          <mxGeometry x="10.100357142857142" y="5.412100643500644" width="260.9710714285714" height="123.12528963963963" as="geometry" />
        </mxCell>
        <mxCell id="9jHa-yjWCjIx_G0f_6F6-76" style="edgeStyle=orthogonalEdgeStyle;rounded=0;orthogonalLoop=1;jettySize=auto;html=1;exitX=0.5;exitY=0;exitDx=0;exitDy=0;entryX=0.5;entryY=1;entryDx=0;entryDy=0;" parent="1" source="9jHa-yjWCjIx_G0f_6F6-72" target="9jHa-yjWCjIx_G0f_6F6-74" edge="1">
          <mxGeometry x="-800" y="399.8412698412699" as="geometry" />
        </mxCell>
        <mxCell id="9jHa-yjWCjIx_G0f_6F6-77" style="edgeStyle=orthogonalEdgeStyle;rounded=0;orthogonalLoop=1;jettySize=auto;html=1;exitX=0.5;exitY=0;exitDx=0;exitDy=0;entryX=0;entryY=0.5;entryDx=0;entryDy=0;" parent="1" source="9jHa-yjWCjIx_G0f_6F6-80" target="9jHa-yjWCjIx_G0f_6F6-71" edge="1">
          <mxGeometry x="-800" y="399.8412698412699" as="geometry" />
        </mxCell>
        <mxCell id="9jHa-yjWCjIx_G0f_6F6-78" style="edgeStyle=orthogonalEdgeStyle;rounded=0;orthogonalLoop=1;jettySize=auto;html=1;exitX=0;exitY=0.5;exitDx=0;exitDy=0;entryX=1;entryY=0.5;entryDx=0;entryDy=0;" parent="1" source="9jHa-yjWCjIx_G0f_6F6-68" target="9jHa-yjWCjIx_G0f_6F6-80" edge="1">
          <mxGeometry x="-800" y="399.8412698412699" as="geometry" />
        </mxCell>
        <mxCell id="9jHa-yjWCjIx_G0f_6F6-79" value="" style="group;fillColor=#f5f5f5;strokeColor=#666666;fontColor=#333333;" parent="1" vertex="1" connectable="0">
          <mxGeometry x="-773.81" y="910" width="240.95" height="219.65" as="geometry" />
        </mxCell>
        <mxCell id="9jHa-yjWCjIx_G0f_6F6-80" value="" style="rounded=0;whiteSpace=wrap;html=1;strokeWidth=2;fillColor=none;" parent="9jHa-yjWCjIx_G0f_6F6-79" vertex="1">
          <mxGeometry width="240.95" height="219.64999999999998" as="geometry" />
        </mxCell>
        <mxCell id="9jHa-yjWCjIx_G0f_6F6-81" value="&lt;h1&gt;EventListener&lt;/h1&gt;&lt;ul&gt;&lt;li&gt;Track all events that happen to the player&lt;/li&gt;&lt;/ul&gt;" style="text;html=1;strokeColor=none;fillColor=none;spacing=5;spacingTop=-20;whiteSpace=wrap;overflow=hidden;rounded=0;" parent="9jHa-yjWCjIx_G0f_6F6-79" vertex="1">
          <mxGeometry x="13.38611111111111" y="15.689285714285713" width="209.71574074074073" height="196.1160714285714" as="geometry" />
        </mxCell>
        <mxCell id="EqyBQF0mN42l7uXE81TV-1" value="" style="group" parent="1" vertex="1" connectable="0">
          <mxGeometry x="100" y="1170" width="1070" height="960" as="geometry" />
        </mxCell>
        <mxCell id="9jHa-yjWCjIx_G0f_6F6-1" value="" style="group;container=0;strokeColor=#666666;fontColor=#333333;fillColor=#BAC8D3;" parent="EqyBQF0mN42l7uXE81TV-1" vertex="1" connectable="0">
          <mxGeometry width="1070" height="960" as="geometry" />
        </mxCell>
        <mxCell id="9jHa-yjWCjIx_G0f_6F6-44" value="" style="rounded=0;whiteSpace=wrap;html=1;strokeWidth=2;fillColor=none;dashed=1;" parent="EqyBQF0mN42l7uXE81TV-1" vertex="1">
          <mxGeometry x="638.440366972477" y="113.87959866220734" width="343.57798165137615" height="695.3177257525083" as="geometry" />
        </mxCell>
        <mxCell id="9jHa-yjWCjIx_G0f_6F6-45" value="" style="rounded=0;whiteSpace=wrap;html=1;strokeWidth=2;fillColor=none;dashed=1;" parent="EqyBQF0mN42l7uXE81TV-1" vertex="1">
          <mxGeometry x="245.7798165137615" y="113.87959866220734" width="343.57798165137615" height="695.3177257525083" as="geometry" />
        </mxCell>
        <mxCell id="9jHa-yjWCjIx_G0f_6F6-46" value="&lt;b&gt;&lt;font style=&quot;font-size: 25px&quot;&gt;Game Agents&lt;/font&gt;&lt;/b&gt;" style="text;whiteSpace=wrap;html=1;" parent="EqyBQF0mN42l7uXE81TV-1" vertex="1">
          <mxGeometry x="52.24724770642183" y="13.9525083612041" width="370.2298165137614" height="89.99397993311035" as="geometry" />
        </mxCell>
        <mxCell id="9jHa-yjWCjIx_G0f_6F6-47" value="" style="rounded=0;whiteSpace=wrap;html=1;strokeWidth=2;fillColor=#fff2cc;gradientDirection=west;" parent="EqyBQF0mN42l7uXE81TV-1" vertex="1">
          <mxGeometry x="49.44954128440372" y="531.0702341137123" width="981.651376146789" height="233.42809364548492" as="geometry" />
        </mxCell>
        <mxCell id="9jHa-yjWCjIx_G0f_6F6-48" value="" style="rounded=0;whiteSpace=wrap;html=1;strokeWidth=2;fillColor=#dae8fc;" parent="EqyBQF0mN42l7uXE81TV-1" vertex="1">
          <mxGeometry x="49.44954128440372" y="272.80936454849495" width="981.651376146789" height="228.46153846153842" as="geometry" />
        </mxCell>
        <mxCell id="9jHa-yjWCjIx_G0f_6F6-49" value="" style="group;fillColor=#f8cecc;strokeColor=#b85450;" parent="EqyBQF0mN42l7uXE81TV-1" vertex="1" connectable="0">
          <mxGeometry x="280.1376146788991" y="550.9364548494982" width="274.8623853211009" height="198.6622073578595" as="geometry" />
        </mxCell>
        <mxCell id="9jHa-yjWCjIx_G0f_6F6-50" value="" style="rounded=0;whiteSpace=wrap;html=1;strokeWidth=2;fillColor=none;align=left;" parent="9jHa-yjWCjIx_G0f_6F6-49" vertex="1">
          <mxGeometry width="274.86238532110093" height="198.6622073578595" as="geometry" />
        </mxCell>
        <mxCell id="9jHa-yjWCjIx_G0f_6F6-51" value="&lt;h1&gt;AntiMasker&lt;/h1&gt;&lt;div&gt;&lt;b&gt;Is Triggered when&lt;/b&gt;: the player come close (not necessarily within infectious range, can be further)&lt;/div&gt;&lt;div&gt; &lt;b&gt;Objective&lt;/b&gt;: Actively trying to infect the player, through:&lt;br&gt;&lt;/div&gt;&lt;div&gt;- Coming into close contact deliberately (and chasing if necessary)&lt;br&gt;&lt;/div&gt;&lt;div&gt;- Sneezing at the player&lt;br&gt;&lt;/div&gt;&lt;p&gt;&lt;br&gt;&lt;/p&gt;" style="text;html=1;strokeColor=none;fillColor=none;spacing=5;spacingTop=-20;whiteSpace=wrap;overflow=hidden;rounded=0;labelBorderColor=none;" parent="9jHa-yjWCjIx_G0f_6F6-49" vertex="1">
          <mxGeometry x="10.629648318042854" y="8.939799331103679" width="253.59490825688073" height="180.7826086956521" as="geometry" />
        </mxCell>
        <mxCell id="9jHa-yjWCjIx_G0f_6F6-52" value="&lt;p style=&quot;font-size: 22px&quot;&gt;&lt;b&gt;Infectious Agent&lt;/b&gt;&lt;/p&gt;&lt;div&gt;&lt;br&gt;&lt;/div&gt;&lt;div&gt;These agents can directly affect the player&#39;s&lt;br&gt;&lt;/div&gt;IS" style="text;html=1;strokeColor=none;fillColor=none;spacing=5;spacingTop=-20;whiteSpace=wrap;overflow=hidden;rounded=0;" parent="EqyBQF0mN42l7uXE81TV-1" vertex="1">
          <mxGeometry x="275.2293577981652" y="143.6789297658863" width="304.3119266055046" height="119.19732441471572" as="geometry" />
        </mxCell>
        <mxCell id="9jHa-yjWCjIx_G0f_6F6-53" value="" style="group;strokeColor=#6c8ebf;fillColor=#dae8fc;" parent="EqyBQF0mN42l7uXE81TV-1" vertex="1" connectable="0">
          <mxGeometry x="679.9964220183483" y="549.2287625418058" width="274.8623853211009" height="198.6622073578595" as="geometry" />
        </mxCell>
        <mxCell id="9jHa-yjWCjIx_G0f_6F6-54" value="" style="group;strokeColor=#6c8ebf;fillColor=#dae8fc;" parent="9jHa-yjWCjIx_G0f_6F6-53" vertex="1" connectable="0">
          <mxGeometry width="274.8623853211009" height="198.6622073578595" as="geometry" />
        </mxCell>
        <mxCell id="9jHa-yjWCjIx_G0f_6F6-55" value="&lt;h1&gt;PoliceOfficer&lt;br&gt;&lt;/h1&gt;&lt;div&gt;&lt;b&gt;Is Triggered when&lt;/b&gt;: the player come close without a mask&lt;br&gt;&lt;/div&gt;&lt;div&gt; &lt;b&gt;Objective&lt;/b&gt;: Chase down the player:&lt;br&gt;&lt;/div&gt;&lt;div&gt;- Will stop chasing when player manage to escape (got out of danger range), or when player manage to equip a Mask&lt;br&gt;&lt;/div&gt;- If player is caught then he gets fined and GameOver&lt;br&gt;&lt;div&gt;&lt;br&gt;&lt;/div&gt;&lt;div&gt;&lt;br&gt;&lt;/div&gt;&lt;p&gt;&lt;br&gt;&lt;/p&gt;" style="text;html=1;spacing=5;spacingTop=-20;whiteSpace=wrap;overflow=hidden;rounded=0;" parent="9jHa-yjWCjIx_G0f_6F6-53" vertex="1">
          <mxGeometry x="10.62964831804311" y="11.723879598662192" width="253.5949082568806" height="180.7826086956521" as="geometry" />
        </mxCell>
        <mxCell id="9jHa-yjWCjIx_G0f_6F6-56" value="&lt;p style=&quot;font-size: 22px&quot;&gt;&lt;b&gt;Non-Infectious Agent&lt;/b&gt;&lt;/p&gt;&lt;div&gt;&lt;br&gt;&lt;/div&gt;&lt;div&gt;No direct effect on the player&#39;s IS&lt;br&gt;&lt;/div&gt;" style="text;html=1;strokeColor=none;fillColor=none;spacing=5;spacingTop=-20;whiteSpace=wrap;overflow=hidden;rounded=0;" parent="EqyBQF0mN42l7uXE81TV-1" vertex="1">
          <mxGeometry x="667.8899082568805" y="143.6789297658863" width="265.045871559633" height="89.39799331103677" as="geometry" />
        </mxCell>
        <mxCell id="9jHa-yjWCjIx_G0f_6F6-57" value="&lt;p style=&quot;font-size: 22px&quot;&gt;&lt;b&gt;Simple AI &lt;br&gt;&lt;/b&gt;&lt;/p&gt;&lt;div&gt;&lt;br&gt;&lt;/div&gt;&lt;div&gt;Roam around freely and randomly. Doing neutral things&lt;br&gt;&lt;/div&gt;" style="text;html=1;strokeColor=none;fillColor=none;spacing=5;spacingTop=-20;whiteSpace=wrap;overflow=hidden;rounded=0;rotation=0;" parent="EqyBQF0mN42l7uXE81TV-1" vertex="1">
          <mxGeometry x="59.26605504587155" y="292.67558528428094" width="157.06422018348624" height="168.86287625418058" as="geometry" />
        </mxCell>
        <mxCell id="9jHa-yjWCjIx_G0f_6F6-58" value="&lt;p style=&quot;font-size: 22px&quot;&gt;&lt;b&gt;Advanced AI&lt;/b&gt;&lt;/p&gt;&lt;ul&gt;&lt;li&gt;Have features of Simple AI when idle, &lt;/li&gt;&lt;li&gt;Can chase/challenge the player when triggered&lt;/li&gt;&lt;/ul&gt;" style="text;html=1;strokeColor=none;fillColor=none;spacing=5;spacingTop=-20;whiteSpace=wrap;overflow=hidden;rounded=0;rotation=0;" parent="EqyBQF0mN42l7uXE81TV-1" vertex="1">
          <mxGeometry x="59.26605504587155" y="550.9364548494982" width="176.69724770642202" height="168.86287625418058" as="geometry" />
        </mxCell>
        <mxCell id="9jHa-yjWCjIx_G0f_6F6-59" value="" style="group" parent="EqyBQF0mN42l7uXE81TV-1" vertex="1" connectable="0">
          <mxGeometry x="269.99935779816497" y="299.9963879598661" width="274.8656574923548" height="168.8628762541807" as="geometry" />
        </mxCell>
        <mxCell id="9jHa-yjWCjIx_G0f_6F6-60" value="" style="group;fillColor=#d5e8d4;strokeColor=#000000;" parent="9jHa-yjWCjIx_G0f_6F6-59" vertex="1" connectable="0">
          <mxGeometry width="274.8656574923548" height="168.86287625418072" as="geometry" />
        </mxCell>
        <mxCell id="9jHa-yjWCjIx_G0f_6F6-61" value="&lt;h1&gt;Infected Person&lt;br&gt;&lt;/h1&gt;&lt;div&gt;Neutral.&lt;/div&gt;&lt;div&gt;- Just roaming around the streets&lt;/div&gt;&lt;div&gt;- Will infect the player if come into close range&lt;br&gt;&lt;/div&gt;&lt;div&gt;- May randomly sneeze&lt;/div&gt;&lt;div&gt;&lt;br&gt;&lt;/div&gt;&lt;div&gt;&lt;br&gt;&lt;/div&gt;&lt;p&gt;&lt;br&gt;&lt;/p&gt;" style="text;html=1;spacing=5;spacingTop=-20;whiteSpace=wrap;overflow=hidden;rounded=0;" parent="9jHa-yjWCjIx_G0f_6F6-59" vertex="1">
          <mxGeometry x="10.630749235474468" y="7.600735785953406" width="253.5949082568806" height="153.6652173913043" as="geometry" />
        </mxCell>
        <mxCell id="9jHa-yjWCjIx_G0f_6F6-62" value="" style="group" parent="EqyBQF0mN42l7uXE81TV-1" vertex="1" connectable="0">
          <mxGeometry x="679.9981651376147" y="299.9963879598661" width="274.8623853211009" height="168.8628762541805" as="geometry" />
        </mxCell>
        <mxCell id="9jHa-yjWCjIx_G0f_6F6-63" value="" style="group;fillColor=#e1d5e7;gradientDirection=north;strokeColor=#000000;" parent="9jHa-yjWCjIx_G0f_6F6-62" vertex="1" connectable="0">
          <mxGeometry width="274.8623853211009" height="168.86287625418058" as="geometry" />
        </mxCell>
        <mxCell id="9jHa-yjWCjIx_G0f_6F6-64" value="&lt;h1&gt;Car&lt;br&gt;&lt;/h1&gt;&lt;div&gt;Neutral.&lt;/div&gt;&lt;div&gt;- Just roaming around the streets&lt;/div&gt;&lt;div&gt;(- May hit the player when come into contact ?)&lt;br&gt;&lt;/div&gt;&lt;div&gt;&lt;br&gt;&lt;/div&gt;&lt;div&gt;&lt;br&gt;&lt;/div&gt;&lt;div&gt;&lt;br&gt;&lt;/div&gt;&lt;p&gt;&lt;br&gt;&lt;/p&gt;" style="text;html=1;spacing=5;spacingTop=-20;whiteSpace=wrap;overflow=hidden;rounded=0;" parent="9jHa-yjWCjIx_G0f_6F6-62" vertex="1">
          <mxGeometry x="12.228218759617675" y="11.864548494983515" width="240.0249275324564" height="145.12826086956517" as="geometry" />
        </mxCell>
        <mxCell id="EqyBQF0mN42l7uXE81TV-2" value="" style="group" parent="1" vertex="1" connectable="0">
          <mxGeometry x="-790" y="1270" width="822.92" height="860" as="geometry" />
        </mxCell>
        <mxCell id="9jHa-yjWCjIx_G0f_6F6-82" value="" style="group;fillColor=#e1d5e7;strokeColor=#9673a6;container=0;" parent="EqyBQF0mN42l7uXE81TV-2" vertex="1" connectable="0">
          <mxGeometry width="822.92" height="860" as="geometry" />
        </mxCell>
        <mxCell id="9jHa-yjWCjIx_G0f_6F6-83" value="&lt;h1&gt;Animation &amp;amp; Sound Effects&lt;br&gt;&lt;/h1&gt;&lt;div&gt;Try to stay away from COVID&lt;br&gt;&lt;/div&gt;&lt;div&gt;&lt;br&gt;&lt;/div&gt;&lt;div&gt;&lt;br&gt;&lt;/div&gt;&lt;div&gt;&lt;br&gt;&lt;/div&gt;&lt;p&gt;&lt;br&gt;&lt;/p&gt;" style="text;whiteSpace=wrap;html=1;" parent="EqyBQF0mN42l7uXE81TV-2" vertex="1">
          <mxGeometry x="81.5" y="9.652222222222235" width="335.63" height="154.42777777777778" as="geometry" />
        </mxCell>
        <mxCell id="9jHa-yjWCjIx_G0f_6F6-84" value="" style="group;fillColor=#fff2cc;strokeColor=#d6b656;" parent="EqyBQF0mN42l7uXE81TV-2" vertex="1" connectable="0">
          <mxGeometry x="82.99000000000001" y="132.22222222222217" width="300.4" height="70" as="geometry" />
        </mxCell>
        <mxCell id="9jHa-yjWCjIx_G0f_6F6-85" value="" style="rounded=0;whiteSpace=wrap;html=1;strokeWidth=2;fillColor=none;align=left;" parent="9jHa-yjWCjIx_G0f_6F6-84" vertex="1">
          <mxGeometry width="300.4" height="70" as="geometry" />
        </mxCell>
        <mxCell id="9jHa-yjWCjIx_G0f_6F6-86" value="&lt;h1&gt;Strolling/ Walking&lt;br&gt;&lt;/h1&gt;&lt;div&gt;&lt;br&gt;&lt;/div&gt;&lt;div&gt;&lt;br&gt;&lt;/div&gt;&lt;div&gt;&lt;br&gt;&lt;/div&gt;&lt;p&gt;&lt;br&gt;&lt;/p&gt;&lt;div&gt;&lt;br&gt;&lt;/div&gt;&lt;div&gt;&lt;br&gt;&lt;/div&gt;" style="text;html=1;spacing=5;spacingTop=-20;whiteSpace=wrap;overflow=hidden;rounded=0;" parent="9jHa-yjWCjIx_G0f_6F6-84" vertex="1">
          <mxGeometry x="10.726783333333334" y="2.7999999999999994" width="277.15655" height="63.69999999999998" as="geometry" />
        </mxCell>
        <mxCell id="9jHa-yjWCjIx_G0f_6F6-90" value="" style="group;fillColor=#d5e8d4;strokeColor=#82b366;" parent="EqyBQF0mN42l7uXE81TV-2" vertex="1" connectable="0">
          <mxGeometry x="85.96999999999997" y="357.7777777777778" width="300.4" height="137.47222222222223" as="geometry" />
        </mxCell>
        <mxCell id="9jHa-yjWCjIx_G0f_6F6-91" value="" style="rounded=0;whiteSpace=wrap;html=1;strokeWidth=2;fillColor=none;align=left;" parent="9jHa-yjWCjIx_G0f_6F6-90" vertex="1">
          <mxGeometry width="300.4" height="137.47222222222223" as="geometry" />
        </mxCell>
        <mxCell id="9jHa-yjWCjIx_G0f_6F6-92" value="&lt;h1&gt;Coughing&lt;/h1&gt;&lt;div&gt;- Can be once or multiple times&lt;br&gt;&lt;/div&gt;&lt;div&gt;- Moderate amount of particles/ splash, short distance&lt;br&gt;&lt;/div&gt;&lt;div&gt;&lt;br&gt;&lt;/div&gt;&lt;div&gt;&lt;br&gt;&lt;/div&gt;&lt;div&gt;&lt;br&gt;&lt;/div&gt;&lt;p&gt;&lt;br&gt;&lt;/p&gt;" style="text;html=1;spacing=5;spacingTop=-20;whiteSpace=wrap;overflow=hidden;rounded=0;" parent="9jHa-yjWCjIx_G0f_6F6-90" vertex="1">
          <mxGeometry x="10.726783333333334" y="5.498888888888889" width="277.15655" height="125.0997222222222" as="geometry" />
        </mxCell>
        <mxCell id="9jHa-yjWCjIx_G0f_6F6-93" value="" style="group;fillColor=#d5e8d4;strokeColor=#82b366;" parent="EqyBQF0mN42l7uXE81TV-2" vertex="1" connectable="0">
          <mxGeometry x="404.31000000000006" y="355.2033333333334" width="292.92" height="140.04666666666668" as="geometry" />
        </mxCell>
        <mxCell id="9jHa-yjWCjIx_G0f_6F6-94" value="" style="rounded=0;whiteSpace=wrap;html=1;strokeWidth=2;fillColor=none;align=left;" parent="9jHa-yjWCjIx_G0f_6F6-93" vertex="1">
          <mxGeometry width="292.9200000000001" height="140.04666666666665" as="geometry" />
        </mxCell>
        <mxCell id="9jHa-yjWCjIx_G0f_6F6-95" value="&lt;h1&gt;Sneezing&lt;/h1&gt;&lt;div&gt;- Once&lt;br&gt;&lt;/div&gt;&lt;div&gt;- Intense amount of particle/ splash, longer distance&lt;br&gt;&lt;/div&gt;" style="text;html=1;strokeColor=none;fillColor=none;spacing=5;spacingTop=-20;whiteSpace=wrap;overflow=hidden;rounded=0;" parent="9jHa-yjWCjIx_G0f_6F6-93" vertex="1">
          <mxGeometry x="10.459684999999999" y="5.60186666666667" width="270.255315" height="127.44246666666672" as="geometry" />
        </mxCell>
        <mxCell id="9jHa-yjWCjIx_G0f_6F6-96" value="" style="group;fillColor=#d5e8d4;strokeColor=#82b366;" parent="EqyBQF0mN42l7uXE81TV-2" vertex="1" connectable="0">
          <mxGeometry x="81.5" y="521.1111111111111" width="303.38" height="77.77777777777779" as="geometry" />
        </mxCell>
        <mxCell id="9jHa-yjWCjIx_G0f_6F6-97" value="" style="rounded=0;whiteSpace=wrap;html=1;strokeWidth=2;fillColor=none;align=left;" parent="9jHa-yjWCjIx_G0f_6F6-96" vertex="1">
          <mxGeometry width="303.3800000000001" height="77.77777777777779" as="geometry" />
        </mxCell>
        <mxCell id="9jHa-yjWCjIx_G0f_6F6-98" value="&lt;h1&gt;Carrying Disease&lt;/h1&gt;&lt;div&gt;- Displayed as a cloud of tiny green particles &lt;br&gt;&lt;/div&gt;&lt;br&gt;&lt;div&gt;&lt;br&gt;&lt;/div&gt;&lt;p&gt;&lt;br&gt;&lt;/p&gt;" style="text;html=1;strokeColor=none;fillColor=none;spacing=5;spacingTop=-20;whiteSpace=wrap;overflow=hidden;rounded=0;" parent="9jHa-yjWCjIx_G0f_6F6-96" vertex="1">
          <mxGeometry x="10.833194166666665" y="3.1111111111111125" width="279.9059725" height="70.77777777777779" as="geometry" />
        </mxCell>
        <mxCell id="9jHa-yjWCjIx_G0f_6F6-99" value="" style="group;fillColor=#fff2cc;strokeColor=#d6b656;" parent="EqyBQF0mN42l7uXE81TV-2" vertex="1" connectable="0">
          <mxGeometry x="82.99000000000001" y="225.55555555555566" width="303.38" height="62.22222222222222" as="geometry" />
        </mxCell>
        <mxCell id="9jHa-yjWCjIx_G0f_6F6-100" value="" style="rounded=0;whiteSpace=wrap;html=1;strokeWidth=2;fillColor=none;align=left;" parent="9jHa-yjWCjIx_G0f_6F6-99" vertex="1">
          <mxGeometry width="303.3800000000001" height="62.22222222222222" as="geometry" />
        </mxCell>
        <mxCell id="9jHa-yjWCjIx_G0f_6F6-101" value="&lt;h1&gt;Running&lt;/h1&gt;&lt;br&gt;&lt;div&gt;&lt;br&gt;&lt;/div&gt;&lt;p&gt;&lt;br&gt;&lt;/p&gt;" style="text;html=1;strokeColor=none;fillColor=none;spacing=5;spacingTop=-20;whiteSpace=wrap;overflow=hidden;rounded=0;" parent="9jHa-yjWCjIx_G0f_6F6-99" vertex="1">
          <mxGeometry x="10.833194166666665" y="2.4888888888888894" width="279.9059725" height="56.62222222222222" as="geometry" />
        </mxCell>
        <mxCell id="9jHa-yjWCjIx_G0f_6F6-105" value="" style="group;fillColor=#d5e8d4;strokeColor=#82b366;" parent="EqyBQF0mN42l7uXE81TV-2" vertex="1" connectable="0">
          <mxGeometry x="404.30999999999995" y="521.1111111111111" width="292.92" height="85.55555555555556" as="geometry" />
        </mxCell>
        <mxCell id="9jHa-yjWCjIx_G0f_6F6-106" value="" style="rounded=0;whiteSpace=wrap;html=1;strokeWidth=2;fillColor=none;align=left;" parent="9jHa-yjWCjIx_G0f_6F6-105" vertex="1">
          <mxGeometry width="292.9200000000001" height="85.55555555555553" as="geometry" />
        </mxCell>
        <mxCell id="9jHa-yjWCjIx_G0f_6F6-107" value="&lt;h1&gt;Gettting Hit (Infected)&lt;br&gt;&lt;/h1&gt;&lt;div&gt;- Player flashes anytime it got hit&lt;br&gt;&lt;/div&gt;" style="text;html=1;strokeColor=none;fillColor=none;spacing=5;spacingTop=-20;whiteSpace=wrap;overflow=hidden;rounded=0;" parent="9jHa-yjWCjIx_G0f_6F6-105" vertex="1">
          <mxGeometry x="10.46" y="3.4210818616016883" width="270.26" height="77.35446209288263" as="geometry" />
        </mxCell>
        <mxCell id="9jHa-yjWCjIx_G0f_6F6-108" value="" style="group;fillColor=#d5e8d4;strokeColor=#82b366;" parent="EqyBQF0mN42l7uXE81TV-2" vertex="1" connectable="0">
          <mxGeometry x="82.99000000000001" y="645.56" width="292.92" height="124.44" as="geometry" />
        </mxCell>
        <mxCell id="9jHa-yjWCjIx_G0f_6F6-109" value="" style="rounded=0;whiteSpace=wrap;html=1;strokeWidth=2;fillColor=none;align=left;" parent="9jHa-yjWCjIx_G0f_6F6-108" vertex="1">
          <mxGeometry width="292.9200000000001" height="124.43999999999996" as="geometry" />
        </mxCell>
        <mxCell id="9jHa-yjWCjIx_G0f_6F6-110" value="&lt;h1&gt;Low Immunity Score&lt;br&gt;&lt;/h1&gt;&lt;div&gt;The lower the Immunity Score:&lt;br&gt;&lt;/div&gt;&lt;div&gt;- Player turns green-er&lt;/div&gt;&lt;div&gt;- Coughing sounds more frequent&lt;br&gt;&lt;/div&gt;" style="text;html=1;strokeColor=none;fillColor=none;spacing=5;spacingTop=-20;whiteSpace=wrap;overflow=hidden;rounded=0;" parent="9jHa-yjWCjIx_G0f_6F6-108" vertex="1">
          <mxGeometry x="10.46" y="4.975941352882373" width="270.26" height="112.51156281239588" as="geometry" />
        </mxCell>
        <mxCell id="9jHa-yjWCjIx_G0f_6F6-102" value="" style="group;fillColor=#fff2cc;strokeColor=#d6b656;" parent="EqyBQF0mN42l7uXE81TV-2" vertex="1" connectable="0">
          <mxGeometry x="417.12999999999994" y="129.99555555555565" width="292.92" height="70" as="geometry" />
        </mxCell>
        <mxCell id="9jHa-yjWCjIx_G0f_6F6-103" value="" style="rounded=0;whiteSpace=wrap;html=1;strokeWidth=2;fillColor=none;align=left;" parent="9jHa-yjWCjIx_G0f_6F6-102" vertex="1">
          <mxGeometry width="292.9200000000001" height="69.99999999999999" as="geometry" />
        </mxCell>
        <mxCell id="9jHa-yjWCjIx_G0f_6F6-104" value="&lt;h1&gt;Standing (Breathing)&lt;br&gt;&lt;/h1&gt;&lt;div&gt;&lt;br&gt;&lt;/div&gt;&lt;div&gt;&lt;br&gt;&lt;/div&gt;&lt;p&gt;&lt;br&gt;&lt;/p&gt;" style="text;html=1;strokeColor=none;fillColor=none;spacing=5;spacingTop=-20;whiteSpace=wrap;overflow=hidden;rounded=0;" parent="9jHa-yjWCjIx_G0f_6F6-102" vertex="1">
          <mxGeometry x="10.459684999999999" y="2.799999999999999" width="270.255315" height="63.699999999999974" as="geometry" />
        </mxCell>
        <mxCell id="EqyBQF0mN42l7uXE81TV-45" value="" style="group;fillColor=#f9f7ed;strokeColor=#36393d;container=0;" parent="1" vertex="1" connectable="0">
          <mxGeometry x="150" y="2240" width="822.92" height="570" as="geometry" />
        </mxCell>
        <mxCell id="EqyBQF0mN42l7uXE81TV-46" value="&lt;h1&gt;Task&lt;br&gt;&lt;/h1&gt;" style="text;whiteSpace=wrap;html=1;" parent="1" vertex="1">
          <mxGeometry x="235" y="2260" width="348.5" height="80.35" as="geometry" />
        </mxCell>
        <mxCell id="EqyBQF0mN42l7uXE81TV-47" value="" style="group;fillColor=#e1d5e7;strokeColor=#9673a6;" parent="1" vertex="1" connectable="0">
          <mxGeometry x="235.26" y="2482.58" width="285" height="90" as="geometry" />
        </mxCell>
        <mxCell id="EqyBQF0mN42l7uXE81TV-48" value="" style="rounded=0;whiteSpace=wrap;html=1;strokeWidth=2;fillColor=none;align=left;" parent="EqyBQF0mN42l7uXE81TV-47" vertex="1">
          <mxGeometry width="285" height="90" as="geometry" />
        </mxCell>
        <mxCell id="EqyBQF0mN42l7uXE81TV-49" value="&lt;h1&gt;Escape&lt;br&gt;&lt;/h1&gt;&lt;div&gt;Make a successful escape from AM/Police&lt;br&gt;&lt;/div&gt;&lt;div&gt;&lt;br&gt;&lt;/div&gt;&lt;div&gt;&lt;br&gt;&lt;/div&gt;&lt;div&gt;&lt;br&gt;&lt;/div&gt;&lt;div&gt;&lt;br&gt;&lt;/div&gt;&lt;p&gt;&lt;br&gt;&lt;/p&gt;" style="text;html=1;spacing=5;spacingTop=-20;whiteSpace=wrap;overflow=hidden;rounded=0;" parent="EqyBQF0mN42l7uXE81TV-47" vertex="1">
          <mxGeometry x="10.176875" y="3.5999999999999996" width="262.948125" height="81.89999999999998" as="geometry" />
        </mxCell>
        <mxCell id="EqyBQF0mN42l7uXE81TV-52" value="" style="group;fillColor=#e1d5e7;strokeColor=#9673a6;" parent="1" vertex="1" connectable="0">
          <mxGeometry x="570.26" y="2350" width="280" height="102.58" as="geometry" />
        </mxCell>
        <mxCell id="EqyBQF0mN42l7uXE81TV-53" value="" style="rounded=0;whiteSpace=wrap;html=1;strokeWidth=2;fillColor=none;align=left;" parent="EqyBQF0mN42l7uXE81TV-52" vertex="1">
          <mxGeometry width="280.00000000000006" height="102.57999999999997" as="geometry" />
        </mxCell>
        <mxCell id="EqyBQF0mN42l7uXE81TV-54" value="&lt;h1&gt;MaintainIS&lt;/h1&gt;&lt;div&gt;Make sure to return Home with ImmunityScore &amp;gt; some threshold&lt;br&gt;&lt;/div&gt;" style="text;html=1;strokeColor=none;fillColor=none;spacing=5;spacingTop=-20;whiteSpace=wrap;overflow=hidden;rounded=0;" parent="EqyBQF0mN42l7uXE81TV-52" vertex="1">
          <mxGeometry x="9.998333333333331" y="4.103200000000002" width="258.335" height="93.34780000000002" as="geometry" />
        </mxCell>
        <mxCell id="EqyBQF0mN42l7uXE81TV-57" value="" style="group;fillColor=#e1d5e7;strokeColor=#9673a6;" parent="1" vertex="1" connectable="0">
          <mxGeometry x="234" y="2350" width="286.26" height="102.58" as="geometry" />
        </mxCell>
        <mxCell id="EqyBQF0mN42l7uXE81TV-58" value="" style="rounded=0;whiteSpace=wrap;html=1;strokeWidth=2;fillColor=none;align=left;" parent="EqyBQF0mN42l7uXE81TV-57" vertex="1">
          <mxGeometry width="286.2600000000001" height="102.58" as="geometry" />
        </mxCell>
        <mxCell id="EqyBQF0mN42l7uXE81TV-59" value="&lt;h1&gt;CollectingItem&lt;/h1&gt;&lt;div&gt;Pick up a list of specified Items&lt;br&gt;&lt;/div&gt;&lt;div&gt;&lt;br&gt;&lt;/div&gt;&lt;br&gt;&lt;div&gt;&lt;br&gt;&lt;/div&gt;&lt;p&gt;&lt;br&gt;&lt;/p&gt;" style="text;html=1;strokeColor=none;fillColor=none;spacing=5;spacingTop=-20;whiteSpace=wrap;overflow=hidden;rounded=0;" parent="EqyBQF0mN42l7uXE81TV-57" vertex="1">
          <mxGeometry x="10.25017457363699" y="4.512054571428766" width="264.1106325" height="93.34779999999999" as="geometry" />
        </mxCell>
        <mxCell id="EqyBQF0mN42l7uXE81TV-61" value="" style="group;fillColor=#ffe6cc;strokeColor=#d79b00;" parent="1" vertex="1" connectable="0">
          <mxGeometry x="234" y="2670" width="280" height="90" as="geometry" />
        </mxCell>
        <mxCell id="EqyBQF0mN42l7uXE81TV-62" value="" style="rounded=0;whiteSpace=wrap;html=1;strokeWidth=2;fillColor=none;align=left;" parent="EqyBQF0mN42l7uXE81TV-61" vertex="1">
          <mxGeometry width="280.00000000000006" height="89.99999999999997" as="geometry" />
        </mxCell>
        <mxCell id="EqyBQF0mN42l7uXE81TV-63" value="&lt;h1&gt;Trickery&lt;br&gt;&lt;/h1&gt;Trick AntiMasker to run into the police?" style="text;html=1;strokeColor=none;fillColor=none;spacing=5;spacingTop=-20;whiteSpace=wrap;overflow=hidden;rounded=0;" parent="EqyBQF0mN42l7uXE81TV-61" vertex="1">
          <mxGeometry x="9.998634439437389" y="3.598800399866711" width="258.3394783558651" height="81.3728757080973" as="geometry" />
        </mxCell>
        <mxCell id="sJtW1TznjJLS7IF9xYeB-1" value="&lt;div align=&quot;center&quot;&gt;Other Ideas &lt;br&gt;&lt;/div&gt;" style="text;html=1;strokeColor=none;fillColor=none;align=center;verticalAlign=middle;whiteSpace=wrap;rounded=0;fontSize=11;" vertex="1" parent="1">
          <mxGeometry x="237.13" y="2630" width="192.87" height="20" as="geometry" />
        </mxCell>
        <mxCell id="sJtW1TznjJLS7IF9xYeB-2" value="" style="group;fillColor=#ffe6cc;strokeColor=#d79b00;" vertex="1" connectable="0" parent="1">
          <mxGeometry x="580" y="2670" width="280" height="90" as="geometry" />
        </mxCell>
        <mxCell id="sJtW1TznjJLS7IF9xYeB-3" value="" style="rounded=0;whiteSpace=wrap;html=1;strokeWidth=2;fillColor=none;align=left;" vertex="1" parent="sJtW1TznjJLS7IF9xYeB-2">
          <mxGeometry width="280.00000000000006" height="89.99999999999997" as="geometry" />
        </mxCell>
        <mxCell id="sJtW1TznjJLS7IF9xYeB-4" value="&lt;h1&gt;Delivery&lt;br&gt;&lt;/h1&gt;Deliver an item to a specific person" style="text;html=1;strokeColor=none;fillColor=none;spacing=5;spacingTop=-20;whiteSpace=wrap;overflow=hidden;rounded=0;" vertex="1" parent="sJtW1TznjJLS7IF9xYeB-2">
          <mxGeometry x="9.998634439437389" y="3.598800399866711" width="258.3394783558651" height="81.3728757080973" as="geometry" />
        </mxCell>
        <mxCell id="EqyBQF0mN42l7uXE81TV-4" value="" style="group;fillColor=#ffe6cc;strokeColor=#d79b00;container=0;" parent="1" vertex="1" connectable="0">
          <mxGeometry x="-790" y="2230" width="822.92" height="700" as="geometry" />
        </mxCell>
        <mxCell id="EqyBQF0mN42l7uXE81TV-5" value="&lt;h1&gt;Event&lt;br&gt;&lt;/h1&gt;&lt;div&gt;A collision/trigger between a player/ game agents and another agent/game object&lt;br&gt;&lt;/div&gt;" style="text;whiteSpace=wrap;html=1;" parent="1" vertex="1">
          <mxGeometry x="-726.26" y="2250" width="576.26" height="80.35" as="geometry" />
        </mxCell>
        <mxCell id="EqyBQF0mN42l7uXE81TV-15" value="" style="group;fillColor=#d5e8d4;strokeColor=#82b366;" parent="1" vertex="1" connectable="0">
          <mxGeometry x="-386.26" y="2572.583333333333" width="292.92" height="140.04666666666668" as="geometry" />
        </mxCell>
        <mxCell id="EqyBQF0mN42l7uXE81TV-16" value="" style="rounded=0;whiteSpace=wrap;html=1;strokeWidth=2;fillColor=none;align=left;" parent="EqyBQF0mN42l7uXE81TV-15" vertex="1">
          <mxGeometry width="292.9200000000001" height="140.04666666666665" as="geometry" />
        </mxCell>
        <mxCell id="EqyBQF0mN42l7uXE81TV-17" value="&lt;h1&gt;Physical Contact &lt;br&gt;&lt;/h1&gt;" style="text;html=1;strokeColor=none;fillColor=none;spacing=5;spacingTop=-20;whiteSpace=wrap;overflow=hidden;rounded=0;" parent="EqyBQF0mN42l7uXE81TV-15" vertex="1">
          <mxGeometry x="10.459684999999999" y="5.60186666666667" width="270.255315" height="127.44246666666672" as="geometry" />
        </mxCell>
        <mxCell id="EqyBQF0mN42l7uXE81TV-41" value="&lt;h1 style=&quot;font-size: 16px&quot;&gt;&lt;font style=&quot;font-size: 16px&quot;&gt;AMContact&lt;br&gt;&lt;/font&gt;&lt;/h1&gt;&lt;div style=&quot;font-size: 16px&quot;&gt;&lt;font style=&quot;font-size: 16px&quot;&gt;&lt;br&gt;&lt;/font&gt;&lt;/div&gt;&lt;div style=&quot;font-size: 16px&quot;&gt;&lt;font style=&quot;font-size: 16px&quot;&gt;&lt;br&gt;&lt;/font&gt;&lt;/div&gt;&lt;div style=&quot;font-size: 16px&quot;&gt;&lt;font style=&quot;font-size: 16px&quot;&gt;&lt;br&gt;&lt;/font&gt;&lt;/div&gt;&lt;div style=&quot;font-size: 16px&quot;&gt;&lt;font style=&quot;font-size: 16px&quot;&gt;&lt;br&gt;&lt;/font&gt;&lt;/div&gt;&lt;div style=&quot;font-size: 16px&quot;&gt;&lt;font style=&quot;font-size: 16px&quot;&gt;&lt;br&gt;&lt;/font&gt;&lt;/div&gt;&lt;p style=&quot;font-size: 16px&quot;&gt;&lt;font style=&quot;font-size: 16px&quot;&gt;&lt;br&gt;&lt;/font&gt;&lt;/p&gt;" style="text;html=1;spacing=5;spacingTop=-20;whiteSpace=wrap;overflow=hidden;rounded=0;fillColor=#fff2cc;strokeColor=#d6b656;" parent="EqyBQF0mN42l7uXE81TV-15" vertex="1">
          <mxGeometry x="20" y="62.58" width="99.54" height="27.42" as="geometry" />
        </mxCell>
        <mxCell id="EqyBQF0mN42l7uXE81TV-42" value="&lt;h1 style=&quot;font-size: 16px&quot;&gt;&lt;font style=&quot;font-size: 16px&quot;&gt;PoliceContact&lt;br&gt;&lt;/font&gt;&lt;/h1&gt;&lt;div style=&quot;font-size: 16px&quot;&gt;&lt;font style=&quot;font-size: 16px&quot;&gt;&lt;br&gt;&lt;/font&gt;&lt;/div&gt;&lt;div style=&quot;font-size: 16px&quot;&gt;&lt;font style=&quot;font-size: 16px&quot;&gt;&lt;br&gt;&lt;/font&gt;&lt;/div&gt;&lt;div style=&quot;font-size: 16px&quot;&gt;&lt;font style=&quot;font-size: 16px&quot;&gt;&lt;br&gt;&lt;/font&gt;&lt;/div&gt;&lt;div style=&quot;font-size: 16px&quot;&gt;&lt;font style=&quot;font-size: 16px&quot;&gt;&lt;br&gt;&lt;/font&gt;&lt;/div&gt;&lt;div style=&quot;font-size: 16px&quot;&gt;&lt;font style=&quot;font-size: 16px&quot;&gt;&lt;br&gt;&lt;/font&gt;&lt;/div&gt;&lt;p style=&quot;font-size: 16px&quot;&gt;&lt;font style=&quot;font-size: 16px&quot;&gt;&lt;br&gt;&lt;/font&gt;&lt;/p&gt;" style="text;html=1;spacing=5;spacingTop=-20;whiteSpace=wrap;overflow=hidden;rounded=0;fillColor=#fff2cc;strokeColor=#d6b656;" parent="EqyBQF0mN42l7uXE81TV-15" vertex="1">
          <mxGeometry x="140" y="62.58" width="120" height="27.42" as="geometry" />
        </mxCell>
        <mxCell id="EqyBQF0mN42l7uXE81TV-18" value="" style="group;fillColor=#d5e8d4;strokeColor=#82b366;" parent="1" vertex="1" connectable="0">
          <mxGeometry x="-728" y="2360" width="303.38" height="142.58" as="geometry" />
        </mxCell>
        <mxCell id="EqyBQF0mN42l7uXE81TV-19" value="" style="rounded=0;whiteSpace=wrap;html=1;strokeWidth=2;fillColor=none;align=left;" parent="EqyBQF0mN42l7uXE81TV-18" vertex="1">
          <mxGeometry width="303.3800000000001" height="142.58" as="geometry" />
        </mxCell>
        <mxCell id="EqyBQF0mN42l7uXE81TV-20" value="&lt;h1&gt;Airborne Contact&lt;br&gt;&lt;/h1&gt;&lt;div&gt;&lt;br&gt;&lt;/div&gt;&lt;br&gt;&lt;div&gt;&lt;br&gt;&lt;/div&gt;&lt;p&gt;&lt;br&gt;&lt;/p&gt;" style="text;html=1;strokeColor=none;fillColor=none;spacing=5;spacingTop=-20;whiteSpace=wrap;overflow=hidden;rounded=0;" parent="EqyBQF0mN42l7uXE81TV-18" vertex="1">
          <mxGeometry x="10.86319416666663" y="6.271483142857414" width="279.9059725" height="129.7478" as="geometry" />
        </mxCell>
        <mxCell id="EqyBQF0mN42l7uXE81TV-40" value="&lt;h1 style=&quot;font-size: 16px&quot;&gt;&lt;font style=&quot;font-size: 16px&quot;&gt;InDZone&lt;br&gt;&lt;/font&gt;&lt;/h1&gt;&lt;div style=&quot;font-size: 16px&quot;&gt;&lt;font style=&quot;font-size: 16px&quot;&gt;&lt;br&gt;&lt;/font&gt;&lt;/div&gt;&lt;div style=&quot;font-size: 16px&quot;&gt;&lt;font style=&quot;font-size: 16px&quot;&gt;&lt;br&gt;&lt;/font&gt;&lt;/div&gt;&lt;div style=&quot;font-size: 16px&quot;&gt;&lt;font style=&quot;font-size: 16px&quot;&gt;&lt;br&gt;&lt;/font&gt;&lt;/div&gt;&lt;div style=&quot;font-size: 16px&quot;&gt;&lt;font style=&quot;font-size: 16px&quot;&gt;&lt;br&gt;&lt;/font&gt;&lt;/div&gt;&lt;div style=&quot;font-size: 16px&quot;&gt;&lt;font style=&quot;font-size: 16px&quot;&gt;&lt;br&gt;&lt;/font&gt;&lt;/div&gt;&lt;p style=&quot;font-size: 16px&quot;&gt;&lt;font style=&quot;font-size: 16px&quot;&gt;&lt;br&gt;&lt;/font&gt;&lt;/p&gt;" style="text;html=1;spacing=5;spacingTop=-20;whiteSpace=wrap;overflow=hidden;rounded=0;fillColor=#fff2cc;strokeColor=#d6b656;" parent="EqyBQF0mN42l7uXE81TV-18" vertex="1">
          <mxGeometry x="16.259999999999998" y="52.58" width="79.14" height="27.42" as="geometry" />
        </mxCell>
        <mxCell id="sJtW1TznjJLS7IF9xYeB-11" value="&lt;h1 style=&quot;font-size: 16px&quot;&gt;&lt;font style=&quot;font-size: 16px&quot;&gt;SneezeAt&lt;br&gt;&lt;/font&gt;&lt;/h1&gt;&lt;div style=&quot;font-size: 16px&quot;&gt;&lt;font style=&quot;font-size: 16px&quot;&gt;&lt;br&gt;&lt;/font&gt;&lt;/div&gt;&lt;div style=&quot;font-size: 16px&quot;&gt;&lt;font style=&quot;font-size: 16px&quot;&gt;&lt;br&gt;&lt;/font&gt;&lt;/div&gt;&lt;div style=&quot;font-size: 16px&quot;&gt;&lt;font style=&quot;font-size: 16px&quot;&gt;&lt;br&gt;&lt;/font&gt;&lt;/div&gt;&lt;div style=&quot;font-size: 16px&quot;&gt;&lt;font style=&quot;font-size: 16px&quot;&gt;&lt;br&gt;&lt;/font&gt;&lt;/div&gt;&lt;div style=&quot;font-size: 16px&quot;&gt;&lt;font style=&quot;font-size: 16px&quot;&gt;&lt;br&gt;&lt;/font&gt;&lt;/div&gt;&lt;p style=&quot;font-size: 16px&quot;&gt;&lt;font style=&quot;font-size: 16px&quot;&gt;&lt;br&gt;&lt;/font&gt;&lt;/p&gt;" style="text;html=1;spacing=5;spacingTop=-20;whiteSpace=wrap;overflow=hidden;rounded=0;fillColor=#fff2cc;strokeColor=#d6b656;" vertex="1" parent="EqyBQF0mN42l7uXE81TV-18">
          <mxGeometry x="16.260000000000005" y="92.58" width="93.74" height="27.42" as="geometry" />
        </mxCell>
        <mxCell id="sJtW1TznjJLS7IF9xYeB-12" value="&lt;h1 style=&quot;font-size: 16px&quot;&gt;&lt;font style=&quot;font-size: 16px&quot;&gt;CoughAt&lt;br&gt;&lt;/font&gt;&lt;/h1&gt;&lt;div style=&quot;font-size: 16px&quot;&gt;&lt;font style=&quot;font-size: 16px&quot;&gt;&lt;br&gt;&lt;/font&gt;&lt;/div&gt;&lt;div style=&quot;font-size: 16px&quot;&gt;&lt;font style=&quot;font-size: 16px&quot;&gt;&lt;br&gt;&lt;/font&gt;&lt;/div&gt;&lt;div style=&quot;font-size: 16px&quot;&gt;&lt;font style=&quot;font-size: 16px&quot;&gt;&lt;br&gt;&lt;/font&gt;&lt;/div&gt;&lt;div style=&quot;font-size: 16px&quot;&gt;&lt;font style=&quot;font-size: 16px&quot;&gt;&lt;br&gt;&lt;/font&gt;&lt;/div&gt;&lt;div style=&quot;font-size: 16px&quot;&gt;&lt;font style=&quot;font-size: 16px&quot;&gt;&lt;br&gt;&lt;/font&gt;&lt;/div&gt;&lt;p style=&quot;font-size: 16px&quot;&gt;&lt;font style=&quot;font-size: 16px&quot;&gt;&lt;br&gt;&lt;/font&gt;&lt;/p&gt;" style="text;html=1;spacing=5;spacingTop=-20;whiteSpace=wrap;overflow=hidden;rounded=0;fillColor=#fff2cc;strokeColor=#d6b656;" vertex="1" parent="EqyBQF0mN42l7uXE81TV-18">
          <mxGeometry x="126.25999999999999" y="52.58" width="93.74" height="27.42" as="geometry" />
        </mxCell>
        <mxCell id="EqyBQF0mN42l7uXE81TV-27" value="" style="group;fillColor=#d5e8d4;strokeColor=#82b366;" parent="1" vertex="1" connectable="0">
          <mxGeometry x="-715.8" y="2557.61" width="292.92" height="170" as="geometry" />
        </mxCell>
        <mxCell id="EqyBQF0mN42l7uXE81TV-28" value="" style="rounded=0;whiteSpace=wrap;html=1;strokeWidth=2;fillColor=none;align=left;" parent="EqyBQF0mN42l7uXE81TV-27" vertex="1">
          <mxGeometry width="292.9200000000001" height="169.99999999999994" as="geometry" />
        </mxCell>
        <mxCell id="EqyBQF0mN42l7uXE81TV-29" value="&lt;h1&gt;ItemCollection&lt;br&gt;&lt;/h1&gt;&lt;div&gt;&lt;br&gt;&lt;/div&gt;" style="text;html=1;strokeColor=none;fillColor=none;spacing=5;spacingTop=-20;whiteSpace=wrap;overflow=hidden;rounded=0;" parent="EqyBQF0mN42l7uXE81TV-27" vertex="1">
          <mxGeometry x="10.46" y="6.797734088637121" width="270.26" height="153.70432078196157" as="geometry" />
        </mxCell>
        <mxCell id="EqyBQF0mN42l7uXE81TV-38" value="&lt;h1 style=&quot;font-size: 16px&quot;&gt;&lt;font style=&quot;font-size: 16px&quot;&gt;MaskCollection&lt;br&gt;&lt;/font&gt;&lt;/h1&gt;&lt;div style=&quot;font-size: 16px&quot;&gt;&lt;font style=&quot;font-size: 16px&quot;&gt;&lt;br&gt;&lt;/font&gt;&lt;/div&gt;&lt;div style=&quot;font-size: 16px&quot;&gt;&lt;font style=&quot;font-size: 16px&quot;&gt;&lt;br&gt;&lt;/font&gt;&lt;/div&gt;&lt;div style=&quot;font-size: 16px&quot;&gt;&lt;font style=&quot;font-size: 16px&quot;&gt;&lt;br&gt;&lt;/font&gt;&lt;/div&gt;&lt;div style=&quot;font-size: 16px&quot;&gt;&lt;font style=&quot;font-size: 16px&quot;&gt;&lt;br&gt;&lt;/font&gt;&lt;/div&gt;&lt;div style=&quot;font-size: 16px&quot;&gt;&lt;font style=&quot;font-size: 16px&quot;&gt;&lt;br&gt;&lt;/font&gt;&lt;/div&gt;&lt;p style=&quot;font-size: 16px&quot;&gt;&lt;font style=&quot;font-size: 16px&quot;&gt;&lt;br&gt;&lt;/font&gt;&lt;/p&gt;" style="text;html=1;spacing=5;spacingTop=-20;whiteSpace=wrap;overflow=hidden;rounded=0;fillColor=#fff2cc;strokeColor=#d6b656;" parent="EqyBQF0mN42l7uXE81TV-27" vertex="1">
          <mxGeometry x="20" y="50" width="140" height="30" as="geometry" />
        </mxCell>
        <mxCell id="EqyBQF0mN42l7uXE81TV-39" value="&lt;h1 style=&quot;font-size: 16px&quot;&gt;GoodsCollection&lt;br&gt;&lt;/h1&gt;&lt;div&gt;&lt;br&gt;&lt;/div&gt;&lt;div&gt;&lt;br&gt;&lt;/div&gt;&lt;div&gt;&lt;br&gt;&lt;/div&gt;&lt;div&gt;&lt;br&gt;&lt;/div&gt;&lt;div&gt;&lt;br&gt;&lt;/div&gt;&lt;p&gt;&lt;br&gt;&lt;/p&gt;" style="text;html=1;spacing=5;spacingTop=-20;whiteSpace=wrap;overflow=hidden;rounded=0;fillColor=#fff2cc;strokeColor=#d6b656;" parent="EqyBQF0mN42l7uXE81TV-27" vertex="1">
          <mxGeometry x="20" y="90" width="170" height="30" as="geometry" />
        </mxCell>
        <mxCell id="EqyBQF0mN42l7uXE81TV-12" value="" style="group;fillColor=#d5e8d4;strokeColor=#82b366;" parent="1" vertex="1" connectable="0">
          <mxGeometry x="-390" y="2350" width="300.4" height="190" as="geometry" />
        </mxCell>
        <mxCell id="EqyBQF0mN42l7uXE81TV-13" value="" style="rounded=0;whiteSpace=wrap;html=1;strokeWidth=2;fillColor=none;align=left;" parent="EqyBQF0mN42l7uXE81TV-12" vertex="1">
          <mxGeometry width="300.4" height="190" as="geometry" />
        </mxCell>
        <mxCell id="EqyBQF0mN42l7uXE81TV-14" value="&lt;h1&gt;Chase&lt;/h1&gt;&lt;div&gt;&lt;br&gt;&lt;/div&gt;&lt;div&gt;&lt;br&gt;&lt;/div&gt;&lt;div&gt;&lt;br&gt;&lt;/div&gt;&lt;div&gt;&lt;br&gt;&lt;/div&gt;&lt;div&gt;&lt;br&gt;&lt;/div&gt;&lt;p&gt;&lt;br&gt;&lt;/p&gt;" style="text;html=1;spacing=5;spacingTop=-20;whiteSpace=wrap;overflow=hidden;rounded=0;" parent="EqyBQF0mN42l7uXE81TV-12" vertex="1">
          <mxGeometry x="10.726783333333334" y="5.180952380952379" width="277.15655" height="117.86666666666663" as="geometry" />
        </mxCell>
        <mxCell id="EqyBQF0mN42l7uXE81TV-35" value="&lt;h1 style=&quot;font-size: 16px&quot;&gt;&lt;font style=&quot;font-size: 16px&quot;&gt;PoliceChaseBegin&lt;br&gt;&lt;/font&gt;&lt;/h1&gt;&lt;div style=&quot;font-size: 16px&quot;&gt;&lt;font style=&quot;font-size: 16px&quot;&gt;&lt;br&gt;&lt;/font&gt;&lt;/div&gt;&lt;div style=&quot;font-size: 16px&quot;&gt;&lt;font style=&quot;font-size: 16px&quot;&gt;&lt;br&gt;&lt;/font&gt;&lt;/div&gt;&lt;div style=&quot;font-size: 16px&quot;&gt;&lt;font style=&quot;font-size: 16px&quot;&gt;&lt;br&gt;&lt;/font&gt;&lt;/div&gt;&lt;div style=&quot;font-size: 16px&quot;&gt;&lt;font style=&quot;font-size: 16px&quot;&gt;&lt;br&gt;&lt;/font&gt;&lt;/div&gt;&lt;div style=&quot;font-size: 16px&quot;&gt;&lt;font style=&quot;font-size: 16px&quot;&gt;&lt;br&gt;&lt;/font&gt;&lt;/div&gt;&lt;p style=&quot;font-size: 16px&quot;&gt;&lt;font style=&quot;font-size: 16px&quot;&gt;&lt;br&gt;&lt;/font&gt;&lt;/p&gt;" style="text;html=1;spacing=5;spacingTop=-20;whiteSpace=wrap;overflow=hidden;rounded=0;fillColor=#fff2cc;strokeColor=#d6b656;" parent="EqyBQF0mN42l7uXE81TV-12" vertex="1">
          <mxGeometry x="24.77" y="55" width="165.23" height="22.86" as="geometry" />
        </mxCell>
        <mxCell id="EqyBQF0mN42l7uXE81TV-37" value="&lt;h1 style=&quot;font-size: 16px&quot;&gt;&lt;font style=&quot;font-size: 16px&quot;&gt;AMChaseBegin&lt;br&gt;&lt;/font&gt;&lt;/h1&gt;" style="text;html=1;spacing=5;spacingTop=-20;whiteSpace=wrap;overflow=hidden;rounded=0;fillColor=#fff2cc;strokeColor=#d6b656;" parent="EqyBQF0mN42l7uXE81TV-12" vertex="1">
          <mxGeometry x="24.77" y="125.00047619047619" width="185.23" height="22.857142857142854" as="geometry" />
        </mxCell>
        <mxCell id="EqyBQF0mN42l7uXE81TV-66" value="&lt;h1 style=&quot;font-size: 16px&quot;&gt;&lt;font style=&quot;font-size: 16px&quot;&gt;PoliceChaseEnd&lt;br&gt;&lt;/font&gt;&lt;/h1&gt;&lt;div style=&quot;font-size: 16px&quot;&gt;&lt;font style=&quot;font-size: 16px&quot;&gt;&lt;br&gt;&lt;/font&gt;&lt;/div&gt;&lt;div style=&quot;font-size: 16px&quot;&gt;&lt;font style=&quot;font-size: 16px&quot;&gt;&lt;br&gt;&lt;/font&gt;&lt;/div&gt;&lt;div style=&quot;font-size: 16px&quot;&gt;&lt;font style=&quot;font-size: 16px&quot;&gt;&lt;br&gt;&lt;/font&gt;&lt;/div&gt;&lt;div style=&quot;font-size: 16px&quot;&gt;&lt;font style=&quot;font-size: 16px&quot;&gt;&lt;br&gt;&lt;/font&gt;&lt;/div&gt;&lt;div style=&quot;font-size: 16px&quot;&gt;&lt;font style=&quot;font-size: 16px&quot;&gt;&lt;br&gt;&lt;/font&gt;&lt;/div&gt;&lt;p style=&quot;font-size: 16px&quot;&gt;&lt;font style=&quot;font-size: 16px&quot;&gt;&lt;br&gt;&lt;/font&gt;&lt;/p&gt;" style="text;html=1;spacing=5;spacingTop=-20;whiteSpace=wrap;overflow=hidden;rounded=0;fillColor=#fff2cc;strokeColor=#d6b656;" parent="EqyBQF0mN42l7uXE81TV-12" vertex="1">
          <mxGeometry x="24.769999999999982" y="85.00000000000013" width="165.23" height="22.86" as="geometry" />
        </mxCell>
        <mxCell id="EqyBQF0mN42l7uXE81TV-67" value="&lt;h1 style=&quot;font-size: 16px&quot;&gt;&lt;font style=&quot;font-size: 16px&quot;&gt;AMChaseEnd&lt;br&gt;&lt;/font&gt;&lt;/h1&gt;" style="text;html=1;spacing=5;spacingTop=-20;whiteSpace=wrap;overflow=hidden;rounded=0;fillColor=#fff2cc;strokeColor=#d6b656;" parent="EqyBQF0mN42l7uXE81TV-12" vertex="1">
          <mxGeometry x="24.769999999999982" y="155.0004761904761" width="185.23" height="22.857142857142854" as="geometry" />
        </mxCell>
        <mxCell id="sJtW1TznjJLS7IF9xYeB-5" value="" style="group;fillColor=#d5e8d4;strokeColor=#82b366;" vertex="1" connectable="0" parent="1">
          <mxGeometry x="-720" y="2750" width="303.38" height="142.58" as="geometry" />
        </mxCell>
        <mxCell id="sJtW1TznjJLS7IF9xYeB-6" value="" style="rounded=0;whiteSpace=wrap;html=1;strokeWidth=2;fillColor=none;align=left;" vertex="1" parent="sJtW1TznjJLS7IF9xYeB-5">
          <mxGeometry width="303.3800000000001" height="142.58" as="geometry" />
        </mxCell>
        <mxCell id="sJtW1TznjJLS7IF9xYeB-7" value="&lt;h1&gt;PlayerUpdate&lt;br&gt;&lt;/h1&gt;&lt;div&gt;&lt;br&gt;&lt;/div&gt;&lt;br&gt;&lt;div&gt;&lt;br&gt;&lt;/div&gt;&lt;p&gt;&lt;br&gt;&lt;/p&gt;" style="text;html=1;strokeColor=none;fillColor=none;spacing=5;spacingTop=-20;whiteSpace=wrap;overflow=hidden;rounded=0;" vertex="1" parent="sJtW1TznjJLS7IF9xYeB-5">
          <mxGeometry x="10.86319416666663" y="6.271483142857414" width="279.9059725" height="129.7478" as="geometry" />
        </mxCell>
        <mxCell id="sJtW1TznjJLS7IF9xYeB-8" value="&lt;h1 style=&quot;font-size: 16px&quot;&gt;&lt;font style=&quot;font-size: 16px&quot;&gt;ISLoss&lt;br&gt;&lt;/font&gt;&lt;/h1&gt;&lt;div style=&quot;font-size: 16px&quot;&gt;&lt;font style=&quot;font-size: 16px&quot;&gt;&lt;br&gt;&lt;/font&gt;&lt;/div&gt;&lt;div style=&quot;font-size: 16px&quot;&gt;&lt;font style=&quot;font-size: 16px&quot;&gt;&lt;br&gt;&lt;/font&gt;&lt;/div&gt;&lt;div style=&quot;font-size: 16px&quot;&gt;&lt;font style=&quot;font-size: 16px&quot;&gt;&lt;br&gt;&lt;/font&gt;&lt;/div&gt;&lt;div style=&quot;font-size: 16px&quot;&gt;&lt;font style=&quot;font-size: 16px&quot;&gt;&lt;br&gt;&lt;/font&gt;&lt;/div&gt;&lt;div style=&quot;font-size: 16px&quot;&gt;&lt;font style=&quot;font-size: 16px&quot;&gt;&lt;br&gt;&lt;/font&gt;&lt;/div&gt;&lt;p style=&quot;font-size: 16px&quot;&gt;&lt;font style=&quot;font-size: 16px&quot;&gt;&lt;br&gt;&lt;/font&gt;&lt;/p&gt;" style="text;html=1;spacing=5;spacingTop=-20;whiteSpace=wrap;overflow=hidden;rounded=0;fillColor=#fff2cc;strokeColor=#d6b656;" vertex="1" parent="sJtW1TznjJLS7IF9xYeB-5">
          <mxGeometry x="16.26" y="62.58" width="73.74" height="27.42" as="geometry" />
        </mxCell>
        <mxCell id="sJtW1TznjJLS7IF9xYeB-9" value="&lt;h1 style=&quot;font-size: 16px&quot;&gt;&lt;font style=&quot;font-size: 16px&quot;&gt;ISHeal&lt;br&gt;&lt;/font&gt;&lt;/h1&gt;&lt;div style=&quot;font-size: 16px&quot;&gt;&lt;font style=&quot;font-size: 16px&quot;&gt;&lt;br&gt;&lt;/font&gt;&lt;/div&gt;" style="text;html=1;spacing=5;spacingTop=-20;whiteSpace=wrap;overflow=hidden;rounded=0;fillColor=#fff2cc;strokeColor=#d6b656;" vertex="1" parent="sJtW1TznjJLS7IF9xYeB-5">
          <mxGeometry x="114.81999999999994" y="62.57999999999993" width="73.74" height="27.42" as="geometry" />
        </mxCell>
        <mxCell id="sJtW1TznjJLS7IF9xYeB-10" value="&lt;h1 style=&quot;font-size: 16px&quot;&gt;&lt;font style=&quot;font-size: 16px&quot;&gt;ISFreeze&lt;br&gt;&lt;/font&gt;&lt;/h1&gt;&lt;div style=&quot;font-size: 16px&quot;&gt;&lt;font style=&quot;font-size: 16px&quot;&gt;&lt;br&gt;&lt;/font&gt;&lt;/div&gt;" style="text;html=1;spacing=5;spacingTop=-20;whiteSpace=wrap;overflow=hidden;rounded=0;fillColor=#fff2cc;strokeColor=#d6b656;" vertex="1" parent="sJtW1TznjJLS7IF9xYeB-5">
          <mxGeometry x="16.25999999999999" y="100" width="73.74" height="27.42" as="geometry" />
        </mxCell>
        <mxCell id="sJtW1TznjJLS7IF9xYeB-13" value="" style="group;fillColor=#d5e8d4;strokeColor=#82b366;" vertex="1" connectable="0" parent="1">
          <mxGeometry x="-380" y="2750" width="303.38" height="142.58" as="geometry" />
        </mxCell>
        <mxCell id="sJtW1TznjJLS7IF9xYeB-14" value="" style="rounded=0;whiteSpace=wrap;html=1;strokeWidth=2;fillColor=none;align=left;" vertex="1" parent="sJtW1TznjJLS7IF9xYeB-13">
          <mxGeometry width="303.3800000000001" height="142.58" as="geometry" />
        </mxCell>
        <mxCell id="sJtW1TznjJLS7IF9xYeB-15" value="&lt;h1&gt;Use (Equip)&lt;br&gt;&lt;/h1&gt;&lt;div&gt;&lt;br&gt;&lt;/div&gt;&lt;br&gt;&lt;div&gt;&lt;br&gt;&lt;/div&gt;&lt;p&gt;&lt;br&gt;&lt;/p&gt;" style="text;html=1;strokeColor=none;fillColor=none;spacing=5;spacingTop=-20;whiteSpace=wrap;overflow=hidden;rounded=0;" vertex="1" parent="sJtW1TznjJLS7IF9xYeB-13">
          <mxGeometry x="10.86319416666663" y="6.271483142857414" width="279.9059725" height="129.7478" as="geometry" />
        </mxCell>
        <mxCell id="sJtW1TznjJLS7IF9xYeB-16" value="&lt;h1 style=&quot;font-size: 16px&quot;&gt;Item&lt;font style=&quot;font-size: 16px&quot;&gt;&lt;br&gt;&lt;/font&gt;&lt;/h1&gt;&lt;div style=&quot;font-size: 16px&quot;&gt;&lt;font style=&quot;font-size: 16px&quot;&gt;&lt;br&gt;&lt;/font&gt;&lt;/div&gt;&lt;div style=&quot;font-size: 16px&quot;&gt;&lt;font style=&quot;font-size: 16px&quot;&gt;&lt;br&gt;&lt;/font&gt;&lt;/div&gt;&lt;div style=&quot;font-size: 16px&quot;&gt;&lt;font style=&quot;font-size: 16px&quot;&gt;&lt;br&gt;&lt;/font&gt;&lt;/div&gt;&lt;div style=&quot;font-size: 16px&quot;&gt;&lt;font style=&quot;font-size: 16px&quot;&gt;&lt;br&gt;&lt;/font&gt;&lt;/div&gt;&lt;div style=&quot;font-size: 16px&quot;&gt;&lt;font style=&quot;font-size: 16px&quot;&gt;&lt;br&gt;&lt;/font&gt;&lt;/div&gt;&lt;p style=&quot;font-size: 16px&quot;&gt;&lt;font style=&quot;font-size: 16px&quot;&gt;&lt;br&gt;&lt;/font&gt;&lt;/p&gt;" style="text;html=1;spacing=5;spacingTop=-20;whiteSpace=wrap;overflow=hidden;rounded=0;fillColor=#fff2cc;strokeColor=#d6b656;" vertex="1" parent="sJtW1TznjJLS7IF9xYeB-13">
          <mxGeometry x="16.26" y="62.58" width="73.74" height="27.42" as="geometry" />
        </mxCell>
        <mxCell id="sJtW1TznjJLS7IF9xYeB-17" value="&lt;h1 style=&quot;font-size: 16px&quot;&gt;&lt;font style=&quot;font-size: 16px&quot;&gt;Mask&lt;br&gt;&lt;/font&gt;&lt;/h1&gt;&lt;div style=&quot;font-size: 16px&quot;&gt;&lt;font style=&quot;font-size: 16px&quot;&gt;&lt;br&gt;&lt;/font&gt;&lt;/div&gt;" style="text;html=1;spacing=5;spacingTop=-20;whiteSpace=wrap;overflow=hidden;rounded=0;fillColor=#fff2cc;strokeColor=#d6b656;" vertex="1" parent="sJtW1TznjJLS7IF9xYeB-13">
          <mxGeometry x="114.81999999999994" y="62.57999999999993" width="73.74" height="27.42" as="geometry" />
        </mxCell>
        <mxCell id="sJtW1TznjJLS7IF9xYeB-66" value="Yes" style="edgeStyle=orthogonalEdgeStyle;rounded=0;orthogonalLoop=1;jettySize=auto;html=1;fontSize=11;" edge="1" parent="1" source="sJtW1TznjJLS7IF9xYeB-64" target="sJtW1TznjJLS7IF9xYeB-65">
          <mxGeometry relative="1" as="geometry" />
        </mxCell>
        <mxCell id="sJtW1TznjJLS7IF9xYeB-64" value="Collision" style="rhombus;whiteSpace=wrap;html=1;fontSize=11;" vertex="1" parent="1">
          <mxGeometry x="32.91999999999996" y="3950" width="80" height="80" as="geometry" />
        </mxCell>
        <mxCell id="sJtW1TznjJLS7IF9xYeB-82" style="edgeStyle=orthogonalEdgeStyle;rounded=0;orthogonalLoop=1;jettySize=auto;html=1;exitX=1;exitY=0.5;exitDx=0;exitDy=0;fontSize=11;entryX=0;entryY=0.5;entryDx=0;entryDy=0;" edge="1" parent="1" source="sJtW1TznjJLS7IF9xYeB-65" target="sJtW1TznjJLS7IF9xYeB-83">
          <mxGeometry relative="1" as="geometry">
            <mxPoint x="400" y="4280" as="targetPoint" />
          </mxGeometry>
        </mxCell>
        <mxCell id="sJtW1TznjJLS7IF9xYeB-97" value="No" style="edgeLabel;html=1;align=center;verticalAlign=middle;resizable=0;points=[];fontSize=11;" vertex="1" connectable="0" parent="sJtW1TznjJLS7IF9xYeB-82">
          <mxGeometry x="-0.3936" y="-3" relative="1" as="geometry">
            <mxPoint as="offset" />
          </mxGeometry>
        </mxCell>
        <mxCell id="sJtW1TznjJLS7IF9xYeB-90" value="Yes" style="edgeStyle=orthogonalEdgeStyle;rounded=0;orthogonalLoop=1;jettySize=auto;html=1;fontSize=11;" edge="1" parent="1" source="sJtW1TznjJLS7IF9xYeB-65" target="sJtW1TznjJLS7IF9xYeB-89">
          <mxGeometry relative="1" as="geometry" />
        </mxCell>
        <mxCell id="sJtW1TznjJLS7IF9xYeB-65" value="Player Involved?" style="rhombus;whiteSpace=wrap;html=1;fontSize=11;" vertex="1" parent="1">
          <mxGeometry x="32.91999999999996" y="4110" width="80" height="80" as="geometry" />
        </mxCell>
        <mxCell id="sJtW1TznjJLS7IF9xYeB-70" value="" style="edgeStyle=orthogonalEdgeStyle;rounded=0;orthogonalLoop=1;jettySize=auto;html=1;fontSize=11;" edge="1" parent="1" source="sJtW1TznjJLS7IF9xYeB-67" target="sJtW1TznjJLS7IF9xYeB-69">
          <mxGeometry relative="1" as="geometry" />
        </mxCell>
        <mxCell id="sJtW1TznjJLS7IF9xYeB-74" value="No" style="edgeStyle=orthogonalEdgeStyle;rounded=0;orthogonalLoop=1;jettySize=auto;html=1;fontSize=11;" edge="1" parent="1" source="sJtW1TznjJLS7IF9xYeB-67" target="sJtW1TznjJLS7IF9xYeB-73">
          <mxGeometry x="-0.4374" y="-10" relative="1" as="geometry">
            <mxPoint as="offset" />
          </mxGeometry>
        </mxCell>
        <mxCell id="sJtW1TznjJLS7IF9xYeB-67" value="Police Involved?" style="rhombus;whiteSpace=wrap;html=1;fontSize=11;" vertex="1" parent="1">
          <mxGeometry x="-140.00000000000006" y="4270" width="80" height="80" as="geometry" />
        </mxCell>
        <mxCell id="sJtW1TznjJLS7IF9xYeB-72" value="No" style="edgeStyle=orthogonalEdgeStyle;rounded=0;orthogonalLoop=1;jettySize=auto;html=1;fontSize=11;entryX=1;entryY=0.5;entryDx=0;entryDy=0;" edge="1" parent="1" source="sJtW1TznjJLS7IF9xYeB-69" target="sJtW1TznjJLS7IF9xYeB-76">
          <mxGeometry relative="1" as="geometry">
            <mxPoint x="-93.74000000000024" y="4590" as="targetPoint" />
          </mxGeometry>
        </mxCell>
        <mxCell id="sJtW1TznjJLS7IF9xYeB-69" value="Mask Equipped?" style="rhombus;whiteSpace=wrap;html=1;fontSize=11;" vertex="1" parent="1">
          <mxGeometry x="-140.00000000000006" y="4420" width="80" height="80" as="geometry" />
        </mxCell>
        <mxCell id="sJtW1TznjJLS7IF9xYeB-81" value="No" style="edgeStyle=orthogonalEdgeStyle;rounded=0;orthogonalLoop=1;jettySize=auto;html=1;fontSize=11;" edge="1" parent="1" source="sJtW1TznjJLS7IF9xYeB-73" target="sJtW1TznjJLS7IF9xYeB-80">
          <mxGeometry relative="1" as="geometry" />
        </mxCell>
        <mxCell id="sJtW1TznjJLS7IF9xYeB-73" value="Mask Equipped?" style="rhombus;whiteSpace=wrap;html=1;fontSize=11;" vertex="1" parent="1">
          <mxGeometry x="-350.00000000000006" y="4270" width="80" height="80" as="geometry" />
        </mxCell>
        <mxCell id="sJtW1TznjJLS7IF9xYeB-76" value="GameOver" style="whiteSpace=wrap;html=1;fontSize=11;" vertex="1" parent="1">
          <mxGeometry x="-360" y="4430" width="120" height="60" as="geometry" />
        </mxCell>
        <mxCell id="sJtW1TznjJLS7IF9xYeB-80" value="Lose IS" style="whiteSpace=wrap;html=1;fontSize=11;" vertex="1" parent="1">
          <mxGeometry x="-544.6200000000001" y="4280" width="120" height="60" as="geometry" />
        </mxCell>
        <mxCell id="sJtW1TznjJLS7IF9xYeB-86" value="Yes" style="edgeStyle=orthogonalEdgeStyle;rounded=0;orthogonalLoop=1;jettySize=auto;html=1;fontSize=11;" edge="1" parent="1" source="sJtW1TznjJLS7IF9xYeB-83" target="sJtW1TznjJLS7IF9xYeB-85">
          <mxGeometry relative="1" as="geometry" />
        </mxCell>
        <mxCell id="sJtW1TznjJLS7IF9xYeB-83" value="Police Involved?" style="rhombus;whiteSpace=wrap;html=1;fontSize=11;" vertex="1" parent="1">
          <mxGeometry x="220" y="4110" width="80" height="80" as="geometry" />
        </mxCell>
        <mxCell id="sJtW1TznjJLS7IF9xYeB-88" value="Yes" style="edgeStyle=orthogonalEdgeStyle;rounded=0;orthogonalLoop=1;jettySize=auto;html=1;fontSize=11;" edge="1" parent="1" source="sJtW1TznjJLS7IF9xYeB-85" target="sJtW1TznjJLS7IF9xYeB-87">
          <mxGeometry relative="1" as="geometry" />
        </mxCell>
        <mxCell id="sJtW1TznjJLS7IF9xYeB-85" value="AM Involved?" style="rhombus;whiteSpace=wrap;html=1;fontSize=11;" vertex="1" parent="1">
          <mxGeometry x="220" y="4270" width="80" height="80" as="geometry" />
        </mxCell>
        <mxCell id="sJtW1TznjJLS7IF9xYeB-87" value="AM gets caught" style="whiteSpace=wrap;html=1;fontSize=11;" vertex="1" parent="1">
          <mxGeometry x="200" y="4445" width="120" height="60" as="geometry" />
        </mxCell>
        <mxCell id="sJtW1TznjJLS7IF9xYeB-91" value="No" style="edgeStyle=orthogonalEdgeStyle;rounded=0;orthogonalLoop=1;jettySize=auto;html=1;exitX=0;exitY=0.5;exitDx=0;exitDy=0;entryX=1;entryY=0.5;entryDx=0;entryDy=0;fontSize=11;" edge="1" parent="1" source="sJtW1TznjJLS7IF9xYeB-89" target="sJtW1TznjJLS7IF9xYeB-67">
          <mxGeometry relative="1" as="geometry" />
        </mxCell>
        <mxCell id="sJtW1TznjJLS7IF9xYeB-94" value="Yes" style="edgeStyle=orthogonalEdgeStyle;rounded=0;orthogonalLoop=1;jettySize=auto;html=1;fontSize=11;" edge="1" parent="1" source="sJtW1TznjJLS7IF9xYeB-89" target="sJtW1TznjJLS7IF9xYeB-93">
          <mxGeometry relative="1" as="geometry" />
        </mxCell>
        <mxCell id="sJtW1TznjJLS7IF9xYeB-89" value="Goods Involved?" style="rhombus;whiteSpace=wrap;html=1;fontSize=11;" vertex="1" parent="1">
          <mxGeometry x="32.91999999999996" y="4270" width="80" height="80" as="geometry" />
        </mxCell>
        <mxCell id="sJtW1TznjJLS7IF9xYeB-96" value="No" style="edgeStyle=orthogonalEdgeStyle;rounded=0;orthogonalLoop=1;jettySize=auto;html=1;fontSize=11;" edge="1" parent="1" source="sJtW1TznjJLS7IF9xYeB-93" target="sJtW1TznjJLS7IF9xYeB-95">
          <mxGeometry relative="1" as="geometry" />
        </mxCell>
        <mxCell id="sJtW1TznjJLS7IF9xYeB-93" value="Bag Full?" style="rhombus;whiteSpace=wrap;html=1;fontSize=11;" vertex="1" parent="1">
          <mxGeometry x="32.91999999999996" y="4435" width="80" height="80" as="geometry" />
        </mxCell>
        <mxCell id="sJtW1TznjJLS7IF9xYeB-95" value="Pick Up the Item" style="whiteSpace=wrap;html=1;fontSize=11;" vertex="1" parent="1">
          <mxGeometry x="12.919999999999959" y="4605" width="120" height="60" as="geometry" />
        </mxCell>
        <mxCell id="sJtW1TznjJLS7IF9xYeB-98" value="Yes" style="text;html=1;align=center;verticalAlign=middle;resizable=0;points=[];autosize=1;fontSize=11;" vertex="1" parent="1">
          <mxGeometry x="-85" y="4380" width="30" height="20" as="geometry" />
        </mxCell>
        <mxCell id="sJtW1TznjJLS7IF9xYeB-19" value="" style="group;fillColor=#cce5ff;strokeColor=#36393d;container=0;" vertex="1" connectable="0" parent="1">
          <mxGeometry x="150" y="2850" width="822.92" height="660" as="geometry" />
        </mxCell>
        <mxCell id="sJtW1TznjJLS7IF9xYeB-20" value="&lt;h1&gt;Interactions&lt;br&gt;&lt;/h1&gt;" style="text;whiteSpace=wrap;html=1;" vertex="1" parent="1">
          <mxGeometry x="235" y="2860" width="348.5" height="80.35" as="geometry" />
        </mxCell>
        <mxCell id="sJtW1TznjJLS7IF9xYeB-24" value="" style="group;fillColor=#e1d5e7;strokeColor=#9673a6;" vertex="1" connectable="0" parent="1">
          <mxGeometry x="570.26" y="2950" width="280" height="150" as="geometry" />
        </mxCell>
        <mxCell id="sJtW1TznjJLS7IF9xYeB-25" value="" style="rounded=0;whiteSpace=wrap;html=1;strokeWidth=2;fillColor=none;align=left;" vertex="1" parent="sJtW1TznjJLS7IF9xYeB-24">
          <mxGeometry width="280.00000000000006" height="149.99999999999997" as="geometry" />
        </mxCell>
        <mxCell id="sJtW1TznjJLS7IF9xYeB-26" value="&lt;h1&gt;Player - InDZone - IP&lt;br&gt;&lt;/h1&gt;&lt;div&gt;&lt;b&gt;@InfectedPerson.OnTriggerStay():&lt;/b&gt;&lt;/div&gt;&lt;div&gt;- Damage Rate: Every ?? miliseconds&lt;/div&gt;&lt;div&gt;- Player loses immunityScore or mask takes damage&lt;/div&gt;&lt;div&gt;&lt;br&gt;&lt;/div&gt;&lt;div&gt;&lt;br&gt;&lt;/div&gt;" style="text;html=1;strokeColor=none;fillColor=none;spacing=5;spacingTop=-20;whiteSpace=wrap;overflow=hidden;rounded=0;" vertex="1" parent="sJtW1TznjJLS7IF9xYeB-24">
          <mxGeometry x="10" y="6" width="258.33" height="136.5" as="geometry" />
        </mxCell>
        <mxCell id="sJtW1TznjJLS7IF9xYeB-27" value="" style="group;fillColor=#e1d5e7;strokeColor=#9673a6;" vertex="1" connectable="0" parent="1">
          <mxGeometry x="234" y="2950" width="286.26" height="102.58" as="geometry" />
        </mxCell>
        <mxCell id="sJtW1TznjJLS7IF9xYeB-28" value="" style="rounded=0;whiteSpace=wrap;html=1;strokeWidth=2;fillColor=none;align=left;" vertex="1" parent="sJtW1TznjJLS7IF9xYeB-27">
          <mxGeometry width="286.2600000000001" height="102.58" as="geometry" />
        </mxCell>
        <mxCell id="sJtW1TznjJLS7IF9xYeB-29" value="&lt;h1&gt;AM - CoughAt - Player&lt;/h1&gt;&lt;div&gt;&lt;b&gt;@AM.CoughParticle.OnCollisionEnter():&lt;/b&gt;&lt;/div&gt;&lt;div&gt;&lt;b&gt;- Damage: AM.cough&lt;/b&gt;&lt;/div&gt;&lt;div&gt;&lt;br&gt;&lt;/div&gt;" style="text;html=1;strokeColor=none;fillColor=none;spacing=5;spacingTop=-20;whiteSpace=wrap;overflow=hidden;rounded=0;" vertex="1" parent="sJtW1TznjJLS7IF9xYeB-27">
          <mxGeometry x="10.25017457363699" y="4.512054571428766" width="264.1106325" height="93.34779999999999" as="geometry" />
        </mxCell>
        <mxCell id="sJtW1TznjJLS7IF9xYeB-33" value="&lt;div align=&quot;center&quot;&gt;Other Ideas &lt;br&gt;&lt;/div&gt;" style="text;html=1;strokeColor=none;fillColor=none;align=center;verticalAlign=middle;whiteSpace=wrap;rounded=0;fontSize=11;" vertex="1" parent="1">
          <mxGeometry x="237.1300000000001" y="3230" width="192.87" height="20" as="geometry" />
        </mxCell>
        <mxCell id="sJtW1TznjJLS7IF9xYeB-99" value="" style="group;fillColor=#e1d5e7;strokeColor=#9673a6;" vertex="1" connectable="0" parent="1">
          <mxGeometry x="234" y="3083.71" width="286.26" height="102.58" as="geometry" />
        </mxCell>
        <mxCell id="sJtW1TznjJLS7IF9xYeB-100" value="" style="rounded=0;whiteSpace=wrap;html=1;strokeWidth=2;fillColor=none;align=left;" vertex="1" parent="sJtW1TznjJLS7IF9xYeB-99">
          <mxGeometry width="286.2600000000001" height="102.58" as="geometry" />
        </mxCell>
        <mxCell id="sJtW1TznjJLS7IF9xYeB-101" value="&lt;h1&gt;AM - SneezeAt- Player&lt;/h1&gt;&lt;div&gt;&lt;b&gt;@AM.CoughParticle.OnCollisionEnter():&lt;/b&gt;&lt;/div&gt;&lt;div&gt;&lt;b&gt;- Damage: AM.sneeze&lt;/b&gt;&lt;/div&gt;&lt;div&gt;&lt;br&gt;&lt;/div&gt;" style="text;html=1;strokeColor=none;fillColor=none;spacing=5;spacingTop=-20;whiteSpace=wrap;overflow=hidden;rounded=0;" vertex="1" parent="sJtW1TznjJLS7IF9xYeB-99">
          <mxGeometry x="10.25017457363699" y="4.512054571428766" width="264.1106325" height="93.34779999999999" as="geometry" />
        </mxCell>
        <mxCell id="sJtW1TznjJLS7IF9xYeB-21" value="" style="group;fillColor=#e1d5e7;strokeColor=#9673a6;" vertex="1" connectable="0" parent="1">
          <mxGeometry x="565.26" y="3120" width="290" height="90" as="geometry" />
        </mxCell>
        <mxCell id="sJtW1TznjJLS7IF9xYeB-22" value="" style="rounded=0;whiteSpace=wrap;html=1;strokeWidth=2;fillColor=none;align=left;" vertex="1" parent="sJtW1TznjJLS7IF9xYeB-21">
          <mxGeometry width="285" height="90" as="geometry" />
        </mxCell>
        <mxCell id="sJtW1TznjJLS7IF9xYeB-23" value="&lt;h1&gt;Police - Chase - Player&lt;br&gt;&lt;/h1&gt;&lt;div&gt;&lt;b&gt;@Police.OnTriggerStay():&lt;/b&gt;&lt;/div&gt;&lt;div&gt;&lt;b&gt;- Police chases player&lt;br&gt;&lt;/b&gt;&lt;/div&gt;&lt;div&gt;- &lt;br&gt;&lt;/div&gt;&lt;div&gt;&lt;br&gt;&lt;/div&gt;&lt;div&gt;&lt;br&gt;&lt;/div&gt;&lt;div&gt;&lt;br&gt;&lt;/div&gt;&lt;p&gt;&lt;br&gt;&lt;/p&gt;" style="text;html=1;spacing=5;spacingTop=-20;whiteSpace=wrap;overflow=hidden;rounded=0;" vertex="1" parent="sJtW1TznjJLS7IF9xYeB-21">
          <mxGeometry x="10.18" y="3.6" width="279.82" height="81.9" as="geometry" />
        </mxCell>
        <mxCell id="sJtW1TznjJLS7IF9xYeB-102" value="" style="group;fillColor=#e1d5e7;strokeColor=#9673a6;" vertex="1" connectable="0" parent="1">
          <mxGeometry x="240" y="3280" width="286" height="90" as="geometry" />
        </mxCell>
        <mxCell id="sJtW1TznjJLS7IF9xYeB-103" value="" style="rounded=0;whiteSpace=wrap;html=1;strokeWidth=2;fillColor=none;align=left;" vertex="1" parent="sJtW1TznjJLS7IF9xYeB-102">
          <mxGeometry width="281.06896551724134" height="90" as="geometry" />
        </mxCell>
        <mxCell id="sJtW1TznjJLS7IF9xYeB-104" value="&lt;h1&gt;AM- Chase - Player&lt;br&gt;&lt;/h1&gt;&lt;div&gt;&lt;b&gt;@AM.OnTriggerStay():&lt;/b&gt;&lt;/div&gt;&lt;div&gt;&lt;b&gt;- AM chases player&lt;br&gt;&lt;/b&gt;&lt;/div&gt;&lt;div&gt;- &lt;br&gt;&lt;/div&gt;&lt;div&gt;&lt;br&gt;&lt;/div&gt;&lt;div&gt;&lt;br&gt;&lt;/div&gt;&lt;div&gt;&lt;br&gt;&lt;/div&gt;&lt;p&gt;&lt;br&gt;&lt;/p&gt;" style="text;html=1;spacing=5;spacingTop=-20;whiteSpace=wrap;overflow=hidden;rounded=0;" vertex="1" parent="sJtW1TznjJLS7IF9xYeB-102">
          <mxGeometry x="10.04" y="3.6" width="269.96" height="81.9" as="geometry" />
        </mxCell>
        <mxCell id="sJtW1TznjJLS7IF9xYeB-108" value="" style="group;fillColor=#e1d5e7;strokeColor=#9673a6;" vertex="1" connectable="0" parent="1">
          <mxGeometry x="570" y="3267.42" width="286.26" height="102.58" as="geometry" />
        </mxCell>
        <mxCell id="sJtW1TznjJLS7IF9xYeB-109" value="" style="rounded=0;whiteSpace=wrap;html=1;strokeWidth=2;fillColor=none;align=left;" vertex="1" parent="sJtW1TznjJLS7IF9xYeB-108">
          <mxGeometry width="286.2600000000001" height="102.58" as="geometry" />
        </mxCell>
        <mxCell id="sJtW1TznjJLS7IF9xYeB-110" value="&lt;h1&gt;Police-Contact- Player&lt;/h1&gt;&lt;div&gt;&lt;b&gt;@AM.CoughParticle.OnCollisionEnter():&lt;/b&gt;&lt;/div&gt;&lt;div&gt;&lt;b&gt;- Damage: AM.sneeze&lt;/b&gt;&lt;/div&gt;&lt;div&gt;&lt;br&gt;&lt;/div&gt;" style="text;html=1;strokeColor=none;fillColor=none;spacing=5;spacingTop=-20;whiteSpace=wrap;overflow=hidden;rounded=0;" vertex="1" parent="sJtW1TznjJLS7IF9xYeB-108">
          <mxGeometry x="10.25017457363699" y="4.512054571428766" width="264.1106325" height="93.34779999999999" as="geometry" />
        </mxCell>
        <mxCell id="sJtW1TznjJLS7IF9xYeB-111" value="" style="group;fillColor=#cce5ff;strokeColor=#36393d;container=0;" vertex="1" connectable="0" parent="1">
          <mxGeometry x="-780" y="2960" width="822.92" height="660" as="geometry" />
        </mxCell>
        <mxCell id="sJtW1TznjJLS7IF9xYeB-112" value="&lt;h1&gt;Event And Delegate&lt;br&gt;&lt;/h1&gt;&lt;p&gt;Lorem ipsum dolor sit amet, consectetur adipisicing elit, sed do eiusmod tempor incididunt ut labore et dolore magna aliqua.&lt;/p&gt;" style="text;html=1;strokeColor=none;fillColor=none;spacing=5;spacingTop=-20;whiteSpace=wrap;overflow=hidden;rounded=0;fontSize=11;" vertex="1" parent="1">
          <mxGeometry x="-735" y="2980" width="325" height="120" as="geometry" />
        </mxCell>
      </root>
    </mxGraphModel>
  </diagram>
</mxfile>
